<svg width="177" height="234" viewBox="0 0 177 234" fill="none" xmlns="http://www.w3.org/2000/svg">
<path d="M73.154 0.207517C64.5527 0.876969 46.5559 6.03175 38.3516 10.1824C30.2133 14.266 23.7954 21.8308 22.6706 28.6592L22.2075 31.5379L18.2376 31.8726C11.2242 32.4751 7.58512 35.7554 3.61526 45.3286C-1.28091 57.044 -1.21474 67.0188 3.87991 86.0982C4.60772 88.843 5.4017 93.5291 5.60019 96.4747C6.79115 110.935 9.17307 121.445 11.8858 124.19C13.0768 125.395 13.2753 126.399 13.2753 131.755V137.981L11.2903 134.567C9.43772 131.286 5.93101 127.604 4.60772 127.604C3.21827 127.604 4.2769 129.412 7.58512 132.558C11.555 136.374 13.4076 140.525 14.9294 149.027C15.4587 151.771 16.3188 155.788 16.8481 157.93C18.1053 162.617 18.1714 164.223 17.1128 164.692C16.6496 164.893 16.782 164.96 17.5098 164.893C18.7007 164.759 18.8992 165.094 21.8105 173.796C23.3322 178.148 27.8314 187.788 30.1472 191.537C31.0073 193.01 32.2644 195.085 32.8599 196.223C34.911 199.838 41.5936 207.671 46.5559 212.156C51.5183 216.708 68.4564 228.558 72.3601 230.231C82.0862 234.449 92.871 234.114 102.333 229.361C116.955 221.93 130.651 209.21 139.451 194.884C142.097 190.6 147.126 179.219 148.912 173.462C150.103 169.78 151.427 165.83 151.89 164.759C152.353 163.621 153.544 158.399 154.536 153.043C157.249 138.315 158.374 135.303 162.608 131.219C165.983 127.939 166.909 126.265 165.387 126.265C163.733 126.265 161.88 127.939 159.499 131.688C158.109 133.83 156.852 135.236 156.72 134.767C155.992 132.759 157.58 124.056 159.697 118.031C162.608 109.797 162.674 109.328 163.138 99.0187C163.468 92.2572 163.998 89.1777 165.453 84.2907C166.512 80.8765 167.703 76.1234 168.166 73.6464C168.96 69.0272 168.629 60.7929 167.438 56.7093C166.843 54.567 166.975 54.2992 169.622 51.9562C174.386 47.6717 177.694 38.701 176.437 33.6132C175.841 31.1362 175.246 31.4709 173.525 35.2868C171.871 38.9019 170.283 39.906 166.314 39.906C161.748 39.906 159.631 38.2324 148.714 26.0484C136.473 12.2577 123.571 4.6259 107.229 1.41253C102.002 0.408353 80.4983 -0.39499 73.154 0.207517ZM128.931 61.4624C144.281 68.9603 145.472 70.8347 149.706 94.8011C151.824 106.717 151.956 109.529 151.294 126.6C150.897 137.847 150.169 147.219 149.574 149.696C149.243 150.968 148.846 153.11 148.648 154.382C147.523 161.612 143.619 171.855 140.377 175.738C138.988 177.411 136.209 182.165 134.224 186.248C128.997 196.826 124.034 204.123 119.668 207.604C118.344 208.742 117.22 210.014 117.153 210.415C117.153 210.884 116.955 211.286 116.69 211.286C116.359 211.286 114.639 212.759 112.853 214.499C105.31 221.729 99.0243 226.616 98.2965 225.88C97.8334 225.411 97.8334 219.654 98.3627 214.298C98.6935 209.813 98.6273 208.675 97.7672 207.805C96.7747 206.8 96.8409 206.667 98.6273 205.93C99.686 205.528 101.075 204.524 101.737 203.721L102.928 202.382L100.281 203.788C96.5101 205.796 93.4003 207.068 90.6214 207.805C87.644 208.608 82.2186 208.206 80.8291 207.068C80.1013 206.466 79.969 206.466 80.2998 207.068C80.6306 207.604 80.1013 207.939 78.6457 208.072L76.4623 208.273L76.6607 217.043C76.8592 223.001 76.6607 226.014 76.1976 226.348C74.4112 227.42 63.7587 218.984 52.6431 207.671C46.9529 201.846 41.7921 194.483 34.911 182.165C33.8524 180.29 32.4629 178.215 31.8675 177.478C25.1187 169.646 19.627 153.378 17.5098 134.968C16.1865 123.989 16.3188 118.232 17.9729 108.592C18.7007 104.508 20.024 96.6756 20.9503 91.253C23.1999 77.6631 24.7879 73.3117 29.0885 68.4247C31.272 65.9477 36.499 62.6005 40.7335 60.9268C44.4387 59.521 50.4596 59.3871 73.4849 60.5252C85.7914 61.1277 97.6349 60.726 106.567 59.3871C108.552 59.1193 113.117 58.7846 116.69 58.7176C122.976 58.6507 123.24 58.7176 128.931 61.4624Z" fill="black"/>
<path d="M115.83 87.8388C110.405 89.0438 104.45 91.9894 103.457 94.0647C102.862 95.3367 102.928 96.0061 103.722 97.2781C104.251 98.0814 105.111 98.8178 105.575 98.8178C106.038 98.8178 108.684 97.7467 111.397 96.4747C115.565 94.5333 117.286 94.0647 120.991 94.0647C126.284 93.9977 129.725 94.868 133.364 97.0772C138.723 100.424 139.782 100.893 140.708 100.558C142.163 100.023 140.509 97.0772 136.804 93.663C133.297 90.3827 130.585 88.9099 126.086 87.7049C122.116 86.6338 121.322 86.6338 115.83 87.8388Z" fill="black"/>
<path d="M45.6296 90.6505C40.138 92.1233 34.3155 95.6714 31.3381 99.2864C27.6329 103.772 29.6179 105.579 34.4479 102.165C40.4688 97.9475 49.401 95.6714 55.0911 96.8764C57.0099 97.345 59.855 98.2153 61.4429 98.8848C63.5602 99.822 64.6188 99.9559 65.6113 99.4873C69.7135 97.2111 67.4639 92.9936 61.1121 91.253C54.7603 89.5124 50.4596 89.3116 45.6296 90.6505Z" fill="black"/>
<path d="M116.426 113.546C110.405 114.617 104.847 118.567 102.333 123.721C101.406 125.663 100.612 127.939 100.612 128.876C100.612 130.215 101.009 129.813 102.333 126.935C104.384 122.383 107.295 119.303 111.331 117.161C120.66 112.341 131.974 116.09 136.341 125.529C138.127 129.412 139.385 128.943 137.995 124.86C136.01 119.169 131.908 115.621 125.358 113.88C121.189 112.809 120.925 112.809 116.426 113.546Z" fill="black"/>
<path d="M45.2327 114.55C38.8809 116.357 33.9847 120.776 32.463 126.265C31.4705 129.68 32.7938 130.148 34.0509 126.935C34.6464 125.395 36.6313 122.65 38.4839 120.843C44.1741 115.219 52.1799 114.081 59.458 117.83C63.2956 119.839 65.5452 122.182 68.1256 126.935C70.3752 131.018 70.9045 130.014 68.9195 125.395C65.3467 116.96 54.4295 111.939 45.2327 114.55Z" fill="black"/>
<path d="M47.2838 118.767C43.5124 120.575 41.5275 123.654 41.1966 128.207C41.0643 130.282 41.2628 132.826 41.6598 133.897C42.3214 135.571 42.6523 135.772 44.571 135.504C45.6958 135.303 48.6071 135.37 50.989 135.638C54.0326 135.972 55.9513 135.838 57.5393 135.236C60.3182 134.098 60.252 134.098 60.252 135.37C60.252 136.977 61.5091 135.772 62.5678 133.161C63.8911 129.947 63.8249 127.403 62.2369 124.257C59.3257 118.5 52.9078 116.157 47.2838 118.767Z" fill="black"/>
<path d="M112.786 118.834C107.89 121.847 105.839 128.742 108.353 133.629L109.544 135.972L114.507 135.772C117.22 135.638 120.66 135.236 122.116 134.834C123.571 134.5 125.689 134.232 126.88 134.299C128.798 134.299 129.063 134.098 129.46 131.956C129.658 130.617 129.725 128.14 129.526 126.399C129.261 123.788 128.732 122.851 126.218 120.441C123.307 117.696 123.042 117.562 119.006 117.562C116.095 117.562 114.242 117.964 112.786 118.834Z" fill="black"/>
<path d="M96.113 160.675C94.7897 164.29 90.6214 166.031 84.4681 165.629C79.3073 165.294 77.3885 164.357 75.4036 161.278L74.1465 159.403V161.412C74.1465 162.55 74.6096 164.156 75.2051 164.96C75.8006 165.83 76.1314 166.633 75.9991 166.834C75.8006 166.968 72.4262 167.437 68.4563 167.771C62.7662 168.374 60.3181 168.909 56.9437 170.516C51.5182 173.06 48.3423 175.537 48.3423 177.144C48.3423 178.55 50.1949 179.822 52.246 179.822C53.04 179.822 53.6355 180.156 53.6355 180.558C53.6355 180.96 54.1648 181.093 54.8265 180.893C55.6204 180.625 56.9437 181.83 59.5903 185.311C66.4052 194.148 75.3374 200.24 81.3584 199.972C83.0125 199.905 84.6666 199.57 84.9974 199.236C85.8576 198.365 86.9162 198.365 86.3869 199.236C86.1222 199.637 87.9087 199.905 91.1507 199.905C97.1055 199.905 100.877 198.432 105.773 194.148C108.684 191.671 117.153 181.361 117.153 180.357C117.153 180.089 118.013 179.955 119.072 180.156C120.528 180.424 121.454 180.022 123.042 178.55C126.019 175.738 125.689 174.466 121.388 171.922C115.962 168.776 112.191 167.704 105.244 167.37C101.803 167.169 98.2965 166.901 97.5025 166.7C96.1792 166.432 96.113 166.299 97.0393 164.558C98.0318 162.617 98.2965 158.399 97.4363 158.399C97.1717 158.399 96.51 159.403 96.113 160.675Z" fill="black"/>
</svg>
