<svg width="100%" height="100%" viewBox="0 0 684 253" fill="none" xmlns="http://www.w3.org/2000/svg">
    <g >
        <path d="M61.0633 68H44.4006V38.9038H19.7195V68H3V0H19.7195V27.5082H44.4006V0H61.0633V68Z"  />
        <path d="M92 68H75.2805V0H92V68Z"  />
        <path d="M50.1833 226.375L56.9795 182.949H71.3105L58.5554 252.051H44.0274L35.6553 211.33L27.3817 252.051H12.8044L0 182.949H14.4295L21.1765 226.328L29.5978 182.949H41.762L50.1833 226.375Z"  />
        <path d="M116.175 222.151H93.6197V240.471H120.312V252.051H79.1409V182.949H120.213V194.577H93.6197V210.903H116.175V222.151Z"  />
        <path d="M128.684 252.051V182.949H150.845C158.331 182.949 164.011 184.563 167.885 187.79C171.792 190.986 173.746 195.684 173.746 201.886C173.746 205.398 172.941 208.419 171.332 210.951C169.724 213.482 167.524 215.333 164.733 216.503C167.951 217.389 170.43 219.177 172.17 221.866C173.91 224.524 174.78 227.815 174.78 231.738C174.78 238.446 172.859 243.508 169.018 246.925C165.209 250.342 159.677 252.051 152.421 252.051H128.684ZM143.163 222.009V240.471H152.421C155.015 240.471 156.985 239.695 158.331 238.145C159.677 236.595 160.35 234.396 160.35 231.548C160.35 225.347 158.019 222.167 153.357 222.009H143.163ZM143.163 211.852H150.698C156.378 211.852 159.218 209.021 159.218 203.357C159.218 200.225 158.561 197.978 157.248 196.618C155.934 195.257 153.8 194.577 150.845 194.577H143.163V211.852Z"  />
        <path d="M208.564 252.051V182.949H227.524C235.896 182.949 242.561 185.512 247.518 190.638C252.509 195.763 255.053 202.787 255.152 211.71V222.91C255.152 231.991 252.657 239.126 247.666 244.315C242.709 249.472 235.863 252.051 227.13 252.051H208.564ZM223.042 194.577V240.471H227.376C232.202 240.471 235.601 239.252 237.57 236.816C239.54 234.348 240.575 230.109 240.673 224.097V212.09C240.673 205.635 239.737 201.142 237.866 198.611C235.995 196.048 232.81 194.703 228.312 194.577H223.042Z"  />
        <path d="M302.627 222.151H280.071V240.471H306.763V252.051H265.592V182.949H306.665V194.577H280.071V210.903H302.627V222.151Z"  />
        <path d="M338.479 233.067L350.544 182.949H366.698L346.014 252.051H330.944L310.408 182.949H326.462L338.479 233.067Z"  />
        <path d="M410.479 222.151H387.923V240.471H414.616V252.051H373.445V182.949H414.517V194.577H387.923V210.903H410.479V222.151Z"  />
        <path d="M437.466 240.471H462.878V252.051H422.988V182.949H437.466V240.471Z"  />
        <path d="M518.577 223.717C518.577 232.988 516.295 240.186 511.732 245.311C507.201 250.437 500.897 253 492.821 253C484.777 253 478.457 250.469 473.86 245.406C469.264 240.312 466.933 233.193 466.867 224.049V212.232C466.867 202.74 469.149 195.336 473.713 190.021C478.276 184.674 484.613 182 492.722 182C500.7 182 506.988 184.626 511.584 189.878C516.181 195.099 518.512 202.439 518.577 211.9V223.717ZM504.049 212.137C504.049 205.904 503.13 201.269 501.291 198.231C499.453 195.194 496.596 193.675 492.722 193.675C488.881 193.675 486.041 195.146 484.202 198.089C482.364 201 481.412 205.445 481.346 211.425V223.717C481.346 229.76 482.282 234.222 484.153 237.101C486.025 239.949 488.914 241.372 492.821 241.372C496.596 241.372 499.404 239.98 501.242 237.196C503.081 234.38 504.016 230.029 504.049 224.144V212.137Z"  />
        <path d="M543.447 227.751V252.051H528.969V182.949H553.395C560.487 182.949 566.134 185.069 570.337 189.309C574.572 193.549 576.689 199.054 576.689 205.825C576.689 212.596 574.605 217.943 570.435 221.866C566.265 225.79 560.487 227.751 553.1 227.751H543.447ZM543.447 216.124H553.395C556.153 216.124 558.287 215.254 559.798 213.513C561.308 211.773 562.063 209.242 562.063 205.92C562.063 202.471 561.291 199.734 559.748 197.709C558.205 195.653 556.137 194.609 553.543 194.577H543.447V216.124Z"  />
        <path d="M623.425 222.151H600.87V240.471H627.562V252.051H586.391V182.949H627.464V194.577H600.87V210.903H623.425V222.151Z"  />
        <path d="M657.653 226.802H650.462V252.051H635.984V182.949H659.081C666.336 182.949 671.934 184.768 675.874 188.407C679.847 192.014 681.833 197.156 681.833 203.832C681.833 213.007 678.369 219.43 671.442 223.1L684 251.386V252.051H668.438L657.653 226.802ZM650.462 215.174H658.687C661.576 215.174 663.743 214.257 665.187 212.422C666.632 210.555 667.354 208.071 667.354 204.971C667.354 198.041 664.547 194.577 658.933 194.577H650.462V215.174Z"  />
        <path d="M19.7022 160.065H4V92H19.7022V160.065Z"  />
        <path d="M95.2225 146.134H73.8055L69.6396 160.065H53.0294L77.3305 92H91.6975L116.159 160.065H99.3884L95.2225 146.134ZM77.2237 134.681H91.7509L84.4873 110.419L77.2237 134.681Z"  />
        <path d="M143.985 92L158.672 141.226L173.306 92H193.815V160.065H178.06V141.646L179.502 113.27L163.96 160.065H153.278L137.736 113.27L139.178 141.646V160.065H123.476V92H143.985Z"  />
        <path d="M255.236 135.195H247.438V160.065H231.736V92H256.785C264.654 92 270.724 93.792 274.997 97.376C279.305 100.929 281.46 105.993 281.46 112.569C281.46 121.607 277.703 127.934 270.19 131.549L283.81 159.411V160.065H266.932L255.236 135.195ZM247.438 123.742H256.357C259.491 123.742 261.841 122.838 263.407 121.03C264.974 119.192 265.757 116.745 265.757 113.691C265.757 106.866 262.713 103.453 256.624 103.453H247.438V123.742Z"  />
        <path d="M329.367 146.134H307.95L303.785 160.065H287.174L311.475 92H325.842L350.304 160.065H333.533L329.367 146.134ZM311.369 134.681H325.896L318.632 110.419L311.369 134.681Z"  />
        <path d="M412.151 160.065H396.503V130.941H373.323V160.065H357.621V92H373.323V119.535H396.503V92H412.151V160.065Z"  />
        <path d="M475.388 92V139.122C475.316 146.196 473.091 151.619 468.711 155.39C464.332 159.13 458.047 161 449.858 161C441.526 161 435.153 159.099 430.738 155.297C426.358 151.495 424.168 145.994 424.168 138.795V92H439.977V138.841C439.977 142.706 440.69 145.464 442.114 147.116C443.538 148.768 446.119 149.593 449.858 149.593C453.597 149.593 456.16 148.783 457.549 147.163C458.938 145.511 459.65 142.815 459.685 139.075V92H475.388Z"  />
        <path d="M487.298 160.065V92H503V160.065H487.298Z"  />
        <rect x="500" y="147.5" width="30" height="12" />
    </g>
</svg>
