<svg width="100%" height="100%" viewBox="0 0 584 121" fill="none" xmlns="http://www.w3.org/2000/svg">
<!--Timeline Lines--->
<line x1="3.15112" y1="94.5" x2="558.791" y2="94.5" stroke="#121212" class="timeline-line"/>

<!--Years Lines--->
<line x1="227.378" y1="90" x2="227.378" y2="100" stroke="#121212" class="year-lines"/>
<line x1="353.421" y1="90" x2="353.421" y2="100" stroke="#121212" class="year-lines"/>
<line x1="353.421" y1="90" x2="353.421" y2="100" stroke="#121212" class="year-lines"/>
<line x1="417.493" y1="90" x2="417.493" y2="100" stroke="#121212" class="year-lines"/>
<line x1="541.436" y1="90" x2="541.436" y2="100" stroke="#121212" class="year-lines"/>
<line x1="479.464" y1="90" x2="479.464" y2="100" stroke="#121212" class="year-lines"/>
<line x1="288.299" y1="90" x2="288.299" y2="100" stroke="#121212" class="year-lines"/>
<line x1="38.3132" y1="90" x2="38.3132" y2="100" stroke="#121212" class="year-lines"/>
<line x1="165.407" y1="90" x2="165.407" y2="100" stroke="#121212" class="year-lines"/>
<line x1="101.335" y1="90" x2="101.335" y2="100" stroke="#121212" class="year-lines"/>

<!--Shaded Area-->
<rect x="165.957" y="24" width="390.734" height="71" fill="#C4C4C4" fill-opacity="0.15" id="shaded-area"/>

<!-- Timeline Slots--->
<rect x="2.10083" y="76" width="128.144" height="6" rx="2"  class="time-slots" id="school-time" fill="#121212" />
<rect x="164.907" y="76" width="265.741" height="6" rx="2"  class="time-slots" id="engineering-time" fill="#121212" />
<rect x="165.957" y="25" width="390.734" height="6" rx="2"  class="time-slots" id="self-learn-time" fill="#121212" />
<rect x="451.655" y="76" width="103.986" height="6" rx="2"  class="time-slots" id="working-time" fill="#121212" />

<!--Years Values--->
<path 
d="M103.982 116H98.3926V115.221L101.346 111.939C101.783 111.443 102.084 111.041 102.248 110.732C102.416 110.42 102.5 110.098 102.5 109.766C102.5 109.32 102.365 108.955 102.096 108.67C101.826 108.385 101.467 108.242 101.018 108.242C100.479 108.242 100.059 108.396 99.7578 108.705C99.4609 109.01 99.3125 109.436 99.3125 109.982H98.2285C98.2285 109.197 98.4805 108.562 98.9844 108.078C99.4922 107.594 100.17 107.352 101.018 107.352C101.811 107.352 102.438 107.561 102.898 107.979C103.359 108.393 103.59 108.945 103.59 109.637C103.59 110.477 103.055 111.477 101.984 112.637L99.6992 115.115H103.982V116ZM110.48 112.361C110.48 113.631 110.264 114.574 109.83 115.191C109.396 115.809 108.719 116.117 107.797 116.117C106.887 116.117 106.213 115.816 105.775 115.215C105.338 114.609 105.111 113.707 105.096 112.508V111.061C105.096 109.807 105.312 108.875 105.746 108.266C106.18 107.656 106.859 107.352 107.785 107.352C108.703 107.352 109.379 107.646 109.812 108.236C110.246 108.822 110.469 109.729 110.48 110.955V112.361ZM109.396 110.879C109.396 109.961 109.268 109.293 109.01 108.875C108.752 108.453 108.344 108.242 107.785 108.242C107.23 108.242 106.826 108.451 106.572 108.869C106.318 109.287 106.188 109.93 106.18 110.797V112.531C106.18 113.453 106.312 114.135 106.578 114.576C106.848 115.014 107.254 115.232 107.797 115.232C108.332 115.232 108.729 115.025 108.986 114.611C109.248 114.197 109.385 113.545 109.396 112.654V110.879ZM115.432 116H114.342V108.775L112.156 109.578V108.594L115.262 107.428H115.432V116ZM124.197 116H118.607V115.221L121.561 111.939C121.998 111.443 122.299 111.041 122.463 110.732C122.631 110.42 122.715 110.098 122.715 109.766C122.715 109.32 122.58 108.955 122.311 108.67C122.041 108.385 121.682 108.242 121.232 108.242C120.693 108.242 120.273 108.396 119.973 108.705C119.676 109.01 119.527 109.436 119.527 109.982H118.443C118.443 109.197 118.695 108.562 119.199 108.078C119.707 107.594 120.385 107.352 121.232 107.352C122.025 107.352 122.652 107.561 123.113 107.979C123.574 108.393 123.805 108.945 123.805 109.637C123.805 110.477 123.27 111.477 122.199 112.637L119.914 115.115H124.197V116Z" 
fill="#121212" class="years-value"/>
<path 
d="M421.191 116H415.601V115.221L418.554 111.939C418.992 111.443 419.292 111.041 419.457 110.732C419.625 110.42 419.708 110.098 419.708 109.766C419.708 109.32 419.574 108.955 419.304 108.67C419.035 108.385 418.675 108.242 418.226 108.242C417.687 108.242 417.267 108.396 416.966 108.705C416.669 109.01 416.521 109.436 416.521 109.982H415.437C415.437 109.197 415.689 108.562 416.193 108.078C416.701 107.594 417.378 107.352 418.226 107.352C419.019 107.352 419.646 107.561 420.107 107.979C420.568 108.393 420.798 108.945 420.798 109.637C420.798 110.477 420.263 111.477 419.193 112.637L416.908 115.115H421.191V116ZM427.689 112.361C427.689 113.631 427.472 114.574 427.039 115.191C426.605 115.809 425.927 116.117 425.005 116.117C424.095 116.117 423.421 115.816 422.984 115.215C422.546 114.609 422.32 113.707 422.304 112.508V111.061C422.304 109.807 422.521 108.875 422.955 108.266C423.388 107.656 424.068 107.352 424.994 107.352C425.912 107.352 426.587 107.646 427.021 108.236C427.455 108.822 427.677 109.729 427.689 110.955V112.361ZM426.605 110.879C426.605 109.961 426.476 109.293 426.218 108.875C425.96 108.453 425.552 108.242 424.994 108.242C424.439 108.242 424.035 108.451 423.781 108.869C423.527 109.287 423.396 109.93 423.388 110.797V112.531C423.388 113.453 423.521 114.135 423.787 114.576C424.056 115.014 424.462 115.232 425.005 115.232C425.541 115.232 425.937 115.025 426.195 114.611C426.457 114.197 426.593 113.545 426.605 112.654V110.879ZM432.64 116H431.55V108.775L429.365 109.578V108.594L432.47 107.428H432.64V116ZM441.324 108.078L437.791 116H436.654L440.175 108.359H435.558V107.469H441.324V108.078Z" 
fill="#121212" class="years-value"/>
<path d="M546.184 116H540.594V115.221L543.547 111.939C543.984 111.443 544.285 111.041 544.449 110.732C544.617 110.42 544.701 110.098 544.701 109.766C544.701 109.32 544.566 108.955 544.297 108.67C544.027 108.385 543.668 108.242 543.219 108.242C542.68 108.242 542.26 108.396 541.959 108.705C541.662 109.01 541.514 109.436 541.514 109.982H540.43C540.43 109.197 540.682 108.562 541.186 108.078C541.693 107.594 542.371 107.352 543.219 107.352C544.012 107.352 544.639 107.561 545.1 107.979C545.561 108.393 545.791 108.945 545.791 109.637C545.791 110.477 545.256 111.477 544.186 112.637L541.9 115.115H546.184V116ZM552.682 112.361C552.682 113.631 552.465 114.574 552.031 115.191C551.598 115.809 550.92 116.117 549.998 116.117C549.088 116.117 548.414 115.816 547.977 115.215C547.539 114.609 547.312 113.707 547.297 112.508V111.061C547.297 109.807 547.514 108.875 547.947 108.266C548.381 107.656 549.061 107.352 549.986 107.352C550.904 107.352 551.58 107.646 552.014 108.236C552.447 108.822 552.67 109.729 552.682 110.955V112.361ZM551.598 110.879C551.598 109.961 551.469 109.293 551.211 108.875C550.953 108.453 550.545 108.242 549.986 108.242C549.432 108.242 549.027 108.451 548.773 108.869C548.52 109.287 548.389 109.93 548.381 110.797V112.531C548.381 113.453 548.514 114.135 548.779 114.576C549.049 115.014 549.455 115.232 549.998 115.232C550.533 115.232 550.93 115.025 551.188 114.611C551.449 114.197 551.586 113.545 551.598 112.654V110.879ZM557.633 116H556.543V108.775L554.357 109.578V108.594L557.463 107.428H557.633V116ZM564.963 112.25C564.736 112.52 564.465 112.736 564.148 112.9C563.836 113.064 563.492 113.146 563.117 113.146C562.625 113.146 562.195 113.025 561.828 112.783C561.465 112.541 561.184 112.201 560.984 111.764C560.785 111.322 560.686 110.836 560.686 110.305C560.686 109.734 560.793 109.221 561.008 108.764C561.227 108.307 561.535 107.957 561.934 107.715C562.332 107.473 562.797 107.352 563.328 107.352C564.172 107.352 564.836 107.668 565.32 108.301C565.809 108.93 566.053 109.789 566.053 110.879V111.195C566.053 112.855 565.725 114.068 565.068 114.834C564.412 115.596 563.422 115.986 562.098 116.006H561.887V115.092H562.115C563.01 115.076 563.697 114.844 564.178 114.395C564.658 113.941 564.92 113.227 564.963 112.25ZM563.293 112.25C563.656 112.25 563.99 112.139 564.295 111.916C564.604 111.693 564.828 111.418 564.969 111.09V110.656C564.969 109.945 564.814 109.367 564.506 108.922C564.197 108.477 563.807 108.254 563.334 108.254C562.857 108.254 562.475 108.438 562.186 108.805C561.896 109.168 561.752 109.648 561.752 110.246C561.752 110.828 561.891 111.309 562.168 111.688C562.449 112.062 562.824 112.25 563.293 112.25Z" 
fill="#121212" class="years-value"/>
<path d="M170.155 116H164.565V115.221L167.519 111.939C167.956 111.443 168.257 111.041 168.421 110.732C168.589 110.42 168.673 110.098 168.673 109.766C168.673 109.32 168.538 108.955 168.269 108.67C167.999 108.385 167.64 108.242 167.19 108.242C166.651 108.242 166.231 108.396 165.931 108.705C165.634 109.01 165.485 109.436 165.485 109.982H164.401C164.401 109.197 164.653 108.562 165.157 108.078C165.665 107.594 166.343 107.352 167.19 107.352C167.983 107.352 168.61 107.561 169.071 107.979C169.532 108.393 169.763 108.945 169.763 109.637C169.763 110.477 169.228 111.477 168.157 112.637L165.872 115.115H170.155V116ZM176.653 112.361C176.653 113.631 176.437 114.574 176.003 115.191C175.569 115.809 174.892 116.117 173.97 116.117C173.06 116.117 172.386 115.816 171.948 115.215C171.511 114.609 171.284 113.707 171.269 112.508V111.061C171.269 109.807 171.485 108.875 171.919 108.266C172.353 107.656 173.032 107.352 173.958 107.352C174.876 107.352 175.552 107.646 175.985 108.236C176.419 108.822 176.642 109.729 176.653 110.955V112.361ZM175.569 110.879C175.569 109.961 175.44 109.293 175.183 108.875C174.925 108.453 174.517 108.242 173.958 108.242C173.403 108.242 172.999 108.451 172.745 108.869C172.491 109.287 172.36 109.93 172.353 110.797V112.531C172.353 113.453 172.485 114.135 172.751 114.576C173.021 115.014 173.427 115.232 173.97 115.232C174.505 115.232 174.901 115.025 175.159 114.611C175.421 114.197 175.558 113.545 175.569 112.654V110.879ZM181.604 116H180.515V108.775L178.329 109.578V108.594L181.435 107.428H181.604V116ZM186.356 111.207H187.171C187.683 111.199 188.085 111.064 188.378 110.803C188.671 110.541 188.817 110.188 188.817 109.742C188.817 108.742 188.319 108.242 187.323 108.242C186.854 108.242 186.479 108.377 186.198 108.646C185.921 108.912 185.782 109.266 185.782 109.707H184.698C184.698 109.031 184.944 108.471 185.437 108.025C185.933 107.576 186.562 107.352 187.323 107.352C188.128 107.352 188.759 107.564 189.216 107.99C189.673 108.416 189.901 109.008 189.901 109.766C189.901 110.137 189.78 110.496 189.538 110.844C189.3 111.191 188.974 111.451 188.56 111.623C189.028 111.771 189.39 112.018 189.644 112.361C189.901 112.705 190.03 113.125 190.03 113.621C190.03 114.387 189.78 114.994 189.28 115.443C188.78 115.893 188.13 116.117 187.329 116.117C186.528 116.117 185.876 115.9 185.372 115.467C184.872 115.033 184.622 114.461 184.622 113.75H185.712C185.712 114.199 185.858 114.559 186.151 114.828C186.444 115.098 186.837 115.232 187.329 115.232C187.853 115.232 188.253 115.096 188.53 114.822C188.808 114.549 188.946 114.156 188.946 113.645C188.946 113.148 188.794 112.768 188.489 112.502C188.185 112.236 187.745 112.1 187.171 112.092H186.356V111.207Z" 
fill="#121212" class="years-value"/>

<!--Text Info--->
<path 
d="M52.3737 65.5449C52.3737 65.2845 52.2745 65.0827 52.0759 64.9395C51.8806 64.7962 51.5437 64.6644 51.0652 64.5439C50.5866 64.4235 50.2074 64.2933 49.9275 64.1533C49.2927 63.8343 48.9753 63.3835 48.9753 62.8008C48.9753 62.3353 49.1722 61.9577 49.5661 61.668C49.9633 61.3783 50.4727 61.2334 51.0944 61.2334C51.7325 61.2334 52.2533 61.3962 52.6569 61.7217C53.0638 62.0472 53.2673 62.4639 53.2673 62.9717H52.364C52.364 62.6527 52.2484 62.4069 52.0173 62.2344C51.7894 62.0586 51.4786 61.9707 51.0847 61.9707C50.7168 61.9707 50.4239 62.0439 50.2058 62.1904C49.9877 62.3337 49.8786 62.5355 49.8786 62.7959C49.8786 63.0075 49.9779 63.1849 50.1765 63.3281C50.3783 63.4714 50.7331 63.6081 51.2409 63.7383C51.7487 63.8685 52.1459 64.0166 52.4323 64.1826C52.7188 64.3454 52.932 64.5374 53.072 64.7588C53.212 64.9801 53.2819 65.2389 53.2819 65.5352C53.2819 66.0137 53.0834 66.3913 52.6862 66.668C52.2924 66.9414 51.7715 67.0781 51.1237 67.0781C50.4499 67.0781 49.89 66.9137 49.4441 66.585C49.0013 66.2529 48.78 65.8232 48.78 65.2959H49.6882C49.6882 65.6279 49.8135 65.8867 50.0642 66.0723C50.3148 66.2578 50.668 66.3506 51.1237 66.3506C51.5339 66.3506 51.8448 66.2773 52.0564 66.1309C52.268 65.9811 52.3737 65.7858 52.3737 65.5449ZM58.8435 65.1592C58.7784 65.7679 58.5407 66.2399 58.1306 66.5752C57.7204 66.9105 57.1752 67.0781 56.4948 67.0781C55.7657 67.0781 55.1797 66.8389 54.737 66.3604C54.2976 65.8786 54.0778 65.2161 54.0778 64.373V63.9141C54.0778 63.3802 54.1771 62.9115 54.3757 62.5078C54.5775 62.1009 54.8656 61.7868 55.24 61.5654C55.6176 61.3441 56.0538 61.2334 56.5485 61.2334C57.2126 61.2334 57.7448 61.4059 58.1452 61.751C58.5489 62.0928 58.7816 62.568 58.8435 63.1768H57.9402C57.8816 62.7536 57.7367 62.4476 57.5056 62.2588C57.2777 62.07 56.9587 61.9756 56.5485 61.9756C56.0505 61.9756 55.6648 62.1416 55.3913 62.4736C55.1211 62.8024 54.9844 63.2744 54.9812 63.8896V64.4072C54.9812 65.0225 55.1097 65.4993 55.3669 65.8379C55.6273 66.1732 56.0033 66.3408 56.4948 66.3408C56.9343 66.3408 57.268 66.2513 57.4958 66.0723C57.7269 65.89 57.875 65.5856 57.9402 65.1592H58.8435ZM64.6443 67H63.7409V64.5684H60.7917V67H59.8884V61.3115H60.7917V63.8262H63.7409V61.3115H64.6443V67ZM70.7673 64.3242C70.7673 65.1738 70.5427 65.846 70.0935 66.3408C69.6443 66.8324 69.042 67.0781 68.2868 67.0781C67.5414 67.0781 66.9392 66.8291 66.4802 66.3311C66.0245 65.833 65.7966 65.1559 65.7966 64.2998V63.9971C65.7966 63.1572 66.0228 62.4867 66.4753 61.9854C66.931 61.484 67.5316 61.2334 68.2771 61.2334C69.0355 61.2334 69.6377 61.4808 70.0837 61.9756C70.5329 62.4704 70.7608 63.1328 70.7673 63.9629V64.3242ZM69.8737 63.9873C69.8737 63.3428 69.7338 62.8496 69.4538 62.5078C69.1739 62.166 68.7816 61.9951 68.2771 61.9951C67.7888 61.9951 67.4014 62.1693 67.115 62.5176C66.8318 62.8659 66.6902 63.3607 66.6902 64.002V64.3242C66.6902 64.959 66.8334 65.4521 67.1198 65.8037C67.4063 66.152 67.7953 66.3262 68.2868 66.3262C68.7946 66.3262 69.1853 66.1553 69.4587 65.8135C69.7354 65.4684 69.8737 64.972 69.8737 64.3242V63.9873ZM76.6853 64.3242C76.6853 65.1738 76.4607 65.846 76.0114 66.3408C75.5622 66.8324 74.96 67.0781 74.2048 67.0781C73.4594 67.0781 72.8571 66.8291 72.3982 66.3311C71.9424 65.833 71.7146 65.1559 71.7146 64.2998V63.9971C71.7146 63.1572 71.9408 62.4867 72.3933 61.9854C72.849 61.484 73.4496 61.2334 74.195 61.2334C74.9535 61.2334 75.5557 61.4808 76.0017 61.9756C76.4509 62.4704 76.6788 63.1328 76.6853 63.9629V64.3242ZM75.7917 63.9873C75.7917 63.3428 75.6517 62.8496 75.3718 62.5078C75.0918 62.166 74.6996 61.9951 74.195 61.9951C73.7068 61.9951 73.3194 62.1693 73.0329 62.5176C72.7497 62.8659 72.6081 63.3607 72.6081 64.002V64.3242C72.6081 64.959 72.7513 65.4521 73.0378 65.8037C73.3243 66.152 73.7133 66.3262 74.2048 66.3262C74.7126 66.3262 75.1032 66.1553 75.3767 65.8135C75.6534 65.4684 75.7917 64.972 75.7917 64.3242V63.9873ZM78.7409 66.2627H81.5925V67H77.8376V61.3115H78.7409V66.2627Z" 
fill="#121212" class="text-info"/>
<path 
d="M289.799 64.4316H287.202V66.2627H290.224V67H286.298V61.3115H290.195V62.0586H287.202V63.6895H289.799V64.4316ZM295.927 67H295.029L292.075 62.7227V67H291.171V61.3115H292.075L295.029 65.5938V61.3115H295.927V67ZM301.87 66.2676C301.655 66.5378 301.357 66.7412 300.976 66.8779C300.598 67.0114 300.164 67.0781 299.672 67.0781C298.898 67.0781 298.276 66.8356 297.807 66.3506C297.338 65.8656 297.101 65.2129 297.094 64.3926V63.9531C297.094 63.1003 297.311 62.4346 297.744 61.9561C298.18 61.4743 298.792 61.2334 299.58 61.2334C300.231 61.2334 300.753 61.3864 301.147 61.6924C301.541 61.9984 301.782 62.446 301.87 63.0352H300.971C300.847 62.3288 300.387 61.9756 299.589 61.9756C299.072 61.9756 298.678 62.1432 298.408 62.4785C298.137 62.8138 298.002 63.3053 298.002 63.9531V64.3633C298.002 64.9818 298.152 65.4668 298.452 65.8184C298.754 66.1667 299.166 66.3408 299.687 66.3408C300.279 66.3408 300.707 66.2204 300.971 65.9795V64.8174H299.599V64.1143H301.87V66.2676ZM304.096 67H303.188V61.3115H304.096V67ZM310.263 67H309.365L306.411 62.7227V67H305.507V61.3115H306.411L309.365 65.5938V61.3115H310.263V67ZM315.122 64.4316H312.524V66.2627H315.546V67H311.621V61.3115H315.517V62.0586H312.524V63.6895H315.122V64.4316ZM319.995 64.4316H317.397V66.2627H320.419V67H316.494V61.3115H320.39V62.0586H317.397V63.6895H319.995V64.4316ZM323.632 64.8076H322.27V67H321.367V61.3115H323.447C324.14 61.3115 324.674 61.4629 325.048 61.7656C325.426 62.0684 325.615 62.4964 325.615 63.0498C325.615 63.792 325.232 64.3079 324.467 64.5977L325.874 66.9512V67H324.907L323.632 64.8076ZM322.27 64.0703H323.471C323.852 64.0703 324.153 63.9824 324.374 63.8066C324.599 63.6276 324.711 63.3867 324.711 63.084C324.711 62.7585 324.602 62.5062 324.384 62.3271C324.166 62.1481 323.852 62.0586 323.442 62.0586H322.27V64.0703ZM327.7 67H326.791V61.3115H327.7V67ZM333.867 67H332.968L330.014 62.7227V67H329.111V61.3115H330.014L332.968 65.5938V61.3115H333.867V67ZM339.809 66.2676C339.594 66.5378 339.296 66.7412 338.915 66.8779C338.538 67.0114 338.103 67.0781 337.612 67.0781C336.837 67.0781 336.215 66.8356 335.747 66.3506C335.278 65.8656 335.04 65.2129 335.034 64.3926V63.9531C335.034 63.1003 335.25 62.4346 335.683 61.9561C336.119 61.4743 336.731 61.2334 337.519 61.2334C338.17 61.2334 338.693 61.3864 339.086 61.6924C339.48 61.9984 339.721 62.446 339.809 63.0352H338.911C338.787 62.3288 338.326 61.9756 337.529 61.9756C337.011 61.9756 336.617 62.1432 336.347 62.4785C336.077 62.8138 335.942 63.3053 335.942 63.9531V64.3633C335.942 64.9818 336.092 65.4668 336.391 65.8184C336.694 66.1667 337.106 66.3408 337.626 66.3408C338.219 66.3408 338.647 66.2204 338.911 65.9795V64.8174H337.539V64.1143H339.809V66.2676Z" 
fill="#121212" class="text-info"/>
<path 
d="M493.673 65.5645L493.727 65.9551L493.8 65.6426L495.011 61.3115H495.817L497.008 65.6572L497.072 65.9453L497.13 65.5547L498.097 61.3115H498.996L497.541 67H496.691L495.421 62.5225L495.417 62.498L495.412 62.5225L494.103 67H493.258L491.808 61.3115H492.702L493.673 65.5645ZM504.616 64.3242C504.616 65.1738 504.391 65.846 503.942 66.3408C503.493 66.8324 502.89 67.0781 502.135 67.0781C501.39 67.0781 500.788 66.8291 500.329 66.3311C499.873 65.833 499.645 65.1559 499.645 64.2998V63.9971C499.645 63.1572 499.871 62.4867 500.324 61.9854C500.779 61.484 501.38 61.2334 502.125 61.2334C502.884 61.2334 503.486 61.4808 503.932 61.9756C504.381 62.4704 504.609 63.1328 504.616 63.9629V64.3242ZM503.722 63.9873C503.722 63.3428 503.582 62.8496 503.302 62.5078C503.022 62.166 502.63 61.9951 502.125 61.9951C501.637 61.9951 501.25 62.1693 500.963 62.5176C500.68 62.8659 500.539 63.3607 500.539 64.002V64.3242C500.539 64.959 500.682 65.4521 500.968 65.8037C501.255 66.152 501.644 66.3262 502.135 66.3262C502.643 66.3262 503.034 66.1553 503.307 65.8135C503.584 65.4684 503.722 64.972 503.722 64.3242V63.9873ZM508.034 64.8076H506.671V67H505.768V61.3115H507.848C508.542 61.3115 509.075 61.4629 509.45 61.7656C509.827 62.0684 510.016 62.4964 510.016 63.0498C510.016 63.792 509.634 64.3079 508.869 64.5977L510.275 66.9512V67H509.308L508.034 64.8076ZM506.671 64.0703H507.873C508.253 64.0703 508.555 63.9824 508.776 63.8066C509 63.6276 509.113 63.3867 509.113 63.084C509.113 62.7585 509.004 62.5062 508.786 62.3271C508.568 62.1481 508.253 62.0586 507.843 62.0586H506.671V64.0703ZM512.75 64.4658L512.033 65.1592V67H511.129V61.3115H512.033V64.0215L512.667 63.3184L514.606 61.3115H515.714L513.375 63.8457L515.88 67H514.782L512.75 64.4658ZM517.511 67H516.603V61.3115H517.511V67ZM523.678 67H522.78L519.826 62.7227V67H518.922V61.3115H519.826L522.78 65.5938V61.3115H523.678V67ZM529.621 66.2676C529.406 66.5378 529.108 66.7412 528.727 66.8779C528.349 67.0114 527.915 67.0781 527.423 67.0781C526.649 67.0781 526.027 66.8356 525.558 66.3506C525.089 65.8656 524.852 65.2129 524.845 64.3926V63.9531C524.845 63.1003 525.062 62.4346 525.495 61.9561C525.931 61.4743 526.543 61.2334 527.331 61.2334C527.982 61.2334 528.504 61.3864 528.898 61.6924C529.292 61.9984 529.533 62.446 529.621 63.0352H528.722C528.598 62.3288 528.138 61.9756 527.34 61.9756C526.823 61.9756 526.429 62.1432 526.159 62.4785C525.889 62.8138 525.753 63.3053 525.753 63.9531V64.3633C525.753 64.9818 525.903 65.4668 526.203 65.8184C526.505 66.1667 526.917 66.3408 527.438 66.3408C528.03 66.3408 528.458 66.2204 528.722 65.9795V64.8174H527.35V64.1143H529.621V66.2676Z" 
fill="#121212" class="text-info"/>
<path 
d="M350.1 7.54492C350.1 7.28451 350 7.08268 349.802 6.93945C349.606 6.79622 349.269 6.66439 348.791 6.54395C348.312 6.4235 347.933 6.29329 347.653 6.15332C347.019 5.83431 346.701 5.38346 346.701 4.80078C346.701 4.33529 346.898 3.95768 347.292 3.66797C347.689 3.37826 348.199 3.2334 348.82 3.2334C349.458 3.2334 349.979 3.39616 350.383 3.72168C350.79 4.0472 350.993 4.46387 350.993 4.97168H350.09C350.09 4.65267 349.974 4.4069 349.743 4.23438C349.515 4.05859 349.204 3.9707 348.811 3.9707C348.443 3.9707 348.15 4.04395 347.932 4.19043C347.713 4.33366 347.604 4.53548 347.604 4.7959C347.604 5.00749 347.704 5.1849 347.902 5.32812C348.104 5.47135 348.459 5.60807 348.967 5.73828C349.475 5.86849 349.872 6.0166 350.158 6.18262C350.445 6.34538 350.658 6.53743 350.798 6.75879C350.938 6.98014 351.008 7.23893 351.008 7.53516C351.008 8.01367 350.809 8.39128 350.412 8.66797C350.018 8.94141 349.497 9.07812 348.85 9.07812C348.176 9.07812 347.616 8.91374 347.17 8.58496C346.727 8.25293 346.506 7.82324 346.506 7.2959H347.414C347.414 7.62793 347.539 7.88672 347.79 8.07227C348.041 8.25781 348.394 8.35059 348.85 8.35059C349.26 8.35059 349.571 8.27734 349.782 8.13086C349.994 7.98112 350.1 7.78581 350.1 7.54492ZM355.51 6.43164H352.912V8.2627H355.935V9H352.009V3.31152H355.905V4.05859H352.912V5.68945H355.51V6.43164ZM357.785 8.2627H360.637V9H356.882V3.31152H357.785V8.2627ZM364.953 6.56348H362.414V9H361.511V3.31152H365.344V4.05859H362.414V5.81641H364.953V6.56348ZM369.641 8.2627H372.492V9H368.737V3.31152H369.641V8.2627ZM376.867 6.43164H374.269V8.2627H377.292V9H373.366V3.31152H377.263V4.05859H374.269V5.68945H376.867V6.43164ZM381.657 7.6377H379.118L378.581 9H377.658L379.997 3.31152H380.808L383.112 9H382.194L381.657 7.6377ZM379.411 6.90039H381.369L380.397 4.41504L379.411 6.90039ZM386.159 6.80762H384.797V9H383.894V3.31152H385.974C386.667 3.31152 387.201 3.46289 387.575 3.76562C387.953 4.06836 388.142 4.49642 388.142 5.0498C388.142 5.79199 387.759 6.30794 386.994 6.59766L388.4 8.95117V9H387.434L386.159 6.80762ZM384.797 6.07031H385.998C386.379 6.07031 386.68 5.98242 386.901 5.80664C387.126 5.6276 387.238 5.38672 387.238 5.08398C387.238 4.75846 387.129 4.50618 386.911 4.32715C386.693 4.14811 386.379 4.05859 385.969 4.05859H384.797V6.07031ZM394.011 9H393.112L390.158 4.72266V9H389.255V3.31152H390.158L393.112 7.59375V3.31152H394.011V9ZM396.34 9H395.432V3.31152H396.34V9ZM402.507 9H401.608L398.654 4.72266V9H397.751V3.31152H398.654L401.608 7.59375V3.31152H402.507V9ZM408.449 8.26758C408.234 8.53776 407.936 8.74121 407.556 8.87793C407.178 9.01139 406.743 9.07812 406.252 9.07812C405.477 9.07812 404.855 8.83561 404.387 8.35059C403.918 7.86556 403.68 7.21289 403.674 6.39258V5.95312C403.674 5.10026 403.89 4.43457 404.323 3.95605C404.759 3.47428 405.371 3.2334 406.159 3.2334C406.81 3.2334 407.333 3.38639 407.727 3.69238C408.12 3.99837 408.361 4.44596 408.449 5.03516H407.551C407.427 4.32878 406.966 3.97559 406.169 3.97559C405.651 3.97559 405.257 4.14323 404.987 4.47852C404.717 4.8138 404.582 5.30534 404.582 5.95312V6.36328C404.582 6.98177 404.732 7.4668 405.031 7.81836C405.334 8.16667 405.746 8.34082 406.267 8.34082C406.859 8.34082 407.287 8.22038 407.551 7.97949V6.81738H406.179V6.11426H408.449V8.26758Z" 
fill="#121212" class="text-info"/>
</svg>
