<svg width="100%" height="100%" viewBox="0 0 556 120" fill="none" xmlns="http://www.w3.org/2000/svg">

<!--Base Lines--->
<line x1="2.15112" y1="92.124" x2="556" y2="92.124" stroke="#121212" class="timeline-line"/>

<!--Year Lines--->
<line x1="226.378" y1="87.744" x2="226.378" y2="97.504" stroke="#121212" class="year-lines"/>
<line x1="352.421" y1="87.744" x2="352.421" y2="97.504" stroke="#121212" class="year-lines"/>
<line x1="416.493" y1="87.744" x2="416.493" y2="97.504" stroke="#121212" class="year-lines"/>
<line x1="540.436" y1="87.744" x2="540.436" y2="97.504" stroke="#121212" class="year-lines"/>
<line x1="478.464" y1="87.744" x2="478.464" y2="97.504" stroke="#121212" class="year-lines"/>
<line x1="287.299" y1="87.744" x2="287.299" y2="97.504" stroke="#121212" class="year-lines"/>
<line x1="37.3132" y1="87.744" x2="37.3132" y2="97.504" stroke="#121212" class="year-lines"/>
<line x1="164.407" y1="87.744" x2="164.407" y2="97.504" stroke="#121212" class="year-lines"/>
<line x1="100.335" y1="87.744" x2="100.335" y2="97.504" stroke="#121212" class="year-lines"/>

<!--Shaded Area-->
<rect x="164.957" y="23.328" width="390.734" height="69.296" fill="#C4C4C4" fill-opacity="0.15" id="shaded-area"/>

<!-- Timeline Slots--->
<rect x="1" y="76" width="110" height="6" rx="2"  class="time-slots" id="school-time" fill="#121212" />
<rect x="164.907" y="76" width="265.741" height="6" rx="2"  class="time-slots" id="engineering-time" fill="#121212" />
<rect x="165.957" y="25" width="390.734" height="6" rx="2"  class="time-slots" id="self-learn-time" fill="#121212" />
<rect x="451.655" y="76" width="103.986" height="6" rx="2"  class="time-slots" id="working-time" fill="#121212" />

<!--Year Values--->
<path d="M28.4551 113H23.6855V112.221L26.1172 108.998C26.4844 108.502 26.7383 108.096 26.8789 107.779C27.0234 107.459 27.0957 107.121 27.0957 106.766C27.0957 106.312 26.9902 105.945 26.7793 105.664C26.5684 105.383 26.291 105.242 25.9473 105.242C25.5137 105.242 25.1777 105.393 24.9395 105.693C24.7051 105.99 24.5879 106.42 24.5879 106.982H23.5508C23.5508 106.197 23.7656 105.562 24.1953 105.078C24.625 104.594 25.209 104.352 25.9473 104.352C26.627 104.352 27.1621 104.561 27.5527 104.979C27.9434 105.393 28.1387 105.945 28.1387 106.637C28.1387 107.48 27.6992 108.479 26.8203 109.631L24.9219 112.115H28.4551V113ZM34.1738 109.361C34.1738 110.619 33.9902 111.561 33.623 112.186C33.2559 112.807 32.6797 113.117 31.8945 113.117C31.1328 113.117 30.5645 112.818 30.1895 112.221C29.8145 111.623 29.6191 110.725 29.6035 109.525V108.061C29.6035 106.814 29.7871 105.885 30.1543 105.271C30.5254 104.658 31.1016 104.352 31.8828 104.352C32.6523 104.352 33.2207 104.643 33.5879 105.225C33.959 105.807 34.1543 106.688 34.1738 107.867V109.361ZM33.1367 107.879C33.1367 106.977 33.0371 106.312 32.8379 105.887C32.6387 105.457 32.3203 105.242 31.8828 105.242C31.457 105.242 31.1445 105.453 30.9453 105.875C30.7461 106.293 30.6426 106.926 30.6348 107.773V109.531C30.6348 110.43 30.7383 111.105 30.9453 111.559C31.1523 112.008 31.4688 112.232 31.8945 112.232C32.3164 112.232 32.627 112.02 32.8262 111.594C33.0254 111.168 33.1289 110.518 33.1367 109.643V107.879ZM38.6328 113H37.5898V105.775L35.7969 106.578V105.594L38.4688 104.428H38.6328V113ZM44.5625 113H43.5195V105.775L41.7266 106.578V105.594L44.3984 104.428H44.5625V113Z" fill="#121212" class="year-value" fill-opacity="0.72"/>
<path d="M92.4551 113H87.6855V112.221L90.1172 108.998C90.4844 108.502 90.7383 108.096 90.8789 107.779C91.0234 107.459 91.0957 107.121 91.0957 106.766C91.0957 106.312 90.9902 105.945 90.7793 105.664C90.5684 105.383 90.291 105.242 89.9473 105.242C89.5137 105.242 89.1777 105.393 88.9395 105.693C88.7051 105.99 88.5879 106.42 88.5879 106.982H87.5508C87.5508 106.197 87.7656 105.562 88.1953 105.078C88.625 104.594 89.209 104.352 89.9473 104.352C90.627 104.352 91.1621 104.561 91.5527 104.979C91.9434 105.393 92.1387 105.945 92.1387 106.637C92.1387 107.48 91.6992 108.479 90.8203 109.631L88.9219 112.115H92.4551V113ZM98.1738 109.361C98.1738 110.619 97.9902 111.561 97.623 112.186C97.2559 112.807 96.6797 113.117 95.8945 113.117C95.1328 113.117 94.5645 112.818 94.1895 112.221C93.8145 111.623 93.6191 110.725 93.6035 109.525V108.061C93.6035 106.814 93.7871 105.885 94.1543 105.271C94.5254 104.658 95.1016 104.352 95.8828 104.352C96.6523 104.352 97.2207 104.643 97.5879 105.225C97.959 105.807 98.1543 106.688 98.1738 107.867V109.361ZM97.1367 107.879C97.1367 106.977 97.0371 106.312 96.8379 105.887C96.6387 105.457 96.3203 105.242 95.8828 105.242C95.457 105.242 95.1445 105.453 94.9453 105.875C94.7461 106.293 94.6426 106.926 94.6348 107.773V109.531C94.6348 110.43 94.7383 111.105 94.9453 111.559C95.1523 112.008 95.4688 112.232 95.8945 112.232C96.3164 112.232 96.627 112.02 96.8262 111.594C97.0254 111.168 97.1289 110.518 97.1367 109.643V107.879ZM102.633 113H101.59V105.775L99.7969 106.578V105.594L102.469 104.428H102.633V113ZM110.244 113H105.475V112.221L107.906 108.998C108.273 108.502 108.527 108.096 108.668 107.779C108.812 107.459 108.885 107.121 108.885 106.766C108.885 106.312 108.779 105.945 108.568 105.664C108.357 105.383 108.08 105.242 107.736 105.242C107.303 105.242 106.967 105.393 106.729 105.693C106.494 105.99 106.377 106.42 106.377 106.982H105.34C105.34 106.197 105.555 105.562 105.984 105.078C106.414 104.594 106.998 104.352 107.736 104.352C108.416 104.352 108.951 104.561 109.342 104.979C109.732 105.393 109.928 105.945 109.928 106.637C109.928 107.48 109.488 108.479 108.609 109.631L106.711 112.115H110.244V113Z" fill="#121212" class="year-value" fill-opacity="0.72"/>
<path d="M408.455 113H403.686V112.221L406.117 108.998C406.484 108.502 406.738 108.096 406.879 107.779C407.023 107.459 407.096 107.121 407.096 106.766C407.096 106.312 406.99 105.945 406.779 105.664C406.568 105.383 406.291 105.242 405.947 105.242C405.514 105.242 405.178 105.393 404.939 105.693C404.705 105.99 404.588 106.42 404.588 106.982H403.551C403.551 106.197 403.766 105.562 404.195 105.078C404.625 104.594 405.209 104.352 405.947 104.352C406.627 104.352 407.162 104.561 407.553 104.979C407.943 105.393 408.139 105.945 408.139 106.637C408.139 107.48 407.699 108.479 406.82 109.631L404.922 112.115H408.455V113ZM414.174 109.361C414.174 110.619 413.99 111.561 413.623 112.186C413.256 112.807 412.68 113.117 411.895 113.117C411.133 113.117 410.564 112.818 410.189 112.221C409.814 111.623 409.619 110.725 409.604 109.525V108.061C409.604 106.814 409.787 105.885 410.154 105.271C410.525 104.658 411.102 104.352 411.883 104.352C412.652 104.352 413.221 104.643 413.588 105.225C413.959 105.807 414.154 106.688 414.174 107.867V109.361ZM413.137 107.879C413.137 106.977 413.037 106.312 412.838 105.887C412.639 105.457 412.32 105.242 411.883 105.242C411.457 105.242 411.145 105.453 410.945 105.875C410.746 106.293 410.643 106.926 410.635 107.773V109.531C410.635 110.43 410.738 111.105 410.945 111.559C411.152 112.008 411.469 112.232 411.895 112.232C412.316 112.232 412.627 112.02 412.826 111.594C413.025 111.168 413.129 110.518 413.137 109.643V107.879ZM418.633 113H417.59V105.775L415.797 106.578V105.594L418.469 104.428H418.633V113ZM426.18 105.078L423.244 113H422.16L425.09 105.359H421.287V104.469H426.18V105.078Z" fill="#121212" class="year-value" fill-opacity="0.72"/>
<path d="M532.455 113H527.686V112.221L530.117 108.998C530.484 108.502 530.738 108.096 530.879 107.779C531.023 107.459 531.096 107.121 531.096 106.766C531.096 106.312 530.99 105.945 530.779 105.664C530.568 105.383 530.291 105.242 529.947 105.242C529.514 105.242 529.178 105.393 528.939 105.693C528.705 105.99 528.588 106.42 528.588 106.982H527.551C527.551 106.197 527.766 105.562 528.195 105.078C528.625 104.594 529.209 104.352 529.947 104.352C530.627 104.352 531.162 104.561 531.553 104.979C531.943 105.393 532.139 105.945 532.139 106.637C532.139 107.48 531.699 108.479 530.82 109.631L528.922 112.115H532.455V113ZM538.174 109.361C538.174 110.619 537.99 111.561 537.623 112.186C537.256 112.807 536.68 113.117 535.895 113.117C535.133 113.117 534.564 112.818 534.189 112.221C533.814 111.623 533.619 110.725 533.604 109.525V108.061C533.604 106.814 533.787 105.885 534.154 105.271C534.525 104.658 535.102 104.352 535.883 104.352C536.652 104.352 537.221 104.643 537.588 105.225C537.959 105.807 538.154 106.688 538.174 107.867V109.361ZM537.137 107.879C537.137 106.977 537.037 106.312 536.838 105.887C536.639 105.457 536.32 105.242 535.883 105.242C535.457 105.242 535.145 105.453 534.945 105.875C534.746 106.293 534.643 106.926 534.635 107.773V109.531C534.635 110.43 534.738 111.105 534.945 111.559C535.152 112.008 535.469 112.232 535.895 112.232C536.316 112.232 536.627 112.02 536.826 111.594C537.025 111.168 537.129 110.518 537.137 109.643V107.879ZM542.633 113H541.59V105.775L539.797 106.578V105.594L542.469 104.428H542.633V113ZM548.885 109.355C548.471 109.883 547.986 110.146 547.432 110.146C546.811 110.146 546.316 109.885 545.949 109.361C545.582 108.838 545.398 108.152 545.398 107.305C545.398 106.414 545.598 105.699 545.996 105.16C546.398 104.621 546.945 104.352 547.637 104.352C548.355 104.352 548.916 104.664 549.318 105.289C549.725 105.91 549.928 106.771 549.928 107.873V108.195C549.928 109.141 549.855 109.906 549.711 110.492C549.57 111.078 549.361 111.551 549.084 111.91C548.807 112.27 548.453 112.543 548.023 112.73C547.594 112.914 547.057 113.006 546.412 113.006V112.092H546.594C547.328 112.076 547.885 111.854 548.264 111.424C548.646 110.99 548.854 110.301 548.885 109.355ZM547.607 109.25C547.857 109.25 548.102 109.146 548.34 108.939C548.578 108.729 548.764 108.453 548.896 108.113V107.656C548.896 106.949 548.773 106.373 548.527 105.928C548.281 105.479 547.984 105.254 547.637 105.254C547.262 105.254 546.963 105.439 546.74 105.811C546.521 106.178 546.412 106.656 546.412 107.246C546.412 107.836 546.52 108.318 546.734 108.693C546.949 109.064 547.24 109.25 547.607 109.25Z" fill="#121212" class="year-value" fill-opacity="0.72"/>
<path d="M156.455 113H151.686V112.221L154.117 108.998C154.484 108.502 154.738 108.096 154.879 107.779C155.023 107.459 155.096 107.121 155.096 106.766C155.096 106.312 154.99 105.945 154.779 105.664C154.568 105.383 154.291 105.242 153.947 105.242C153.514 105.242 153.178 105.393 152.939 105.693C152.705 105.99 152.588 106.42 152.588 106.982H151.551C151.551 106.197 151.766 105.562 152.195 105.078C152.625 104.594 153.209 104.352 153.947 104.352C154.627 104.352 155.162 104.561 155.553 104.979C155.943 105.393 156.139 105.945 156.139 106.637C156.139 107.48 155.699 108.479 154.82 109.631L152.922 112.115H156.455V113ZM162.174 109.361C162.174 110.619 161.99 111.561 161.623 112.186C161.256 112.807 160.68 113.117 159.895 113.117C159.133 113.117 158.564 112.818 158.189 112.221C157.814 111.623 157.619 110.725 157.604 109.525V108.061C157.604 106.814 157.787 105.885 158.154 105.271C158.525 104.658 159.102 104.352 159.883 104.352C160.652 104.352 161.221 104.643 161.588 105.225C161.959 105.807 162.154 106.688 162.174 107.867V109.361ZM161.137 107.879C161.137 106.977 161.037 106.312 160.838 105.887C160.639 105.457 160.32 105.242 159.883 105.242C159.457 105.242 159.145 105.453 158.945 105.875C158.746 106.293 158.643 106.926 158.635 107.773V109.531C158.635 110.43 158.738 111.105 158.945 111.559C159.152 112.008 159.469 112.232 159.895 112.232C160.316 112.232 160.627 112.02 160.826 111.594C161.025 111.168 161.129 110.518 161.137 109.643V107.879ZM166.633 113H165.59V105.775L163.797 106.578V105.594L166.469 104.428H166.633V113ZM170.799 108.207H171.461C171.887 108.207 172.215 108.076 172.445 107.814C172.676 107.553 172.791 107.195 172.791 106.742C172.791 105.742 172.404 105.242 171.631 105.242C171.26 105.242 170.969 105.377 170.758 105.646C170.547 105.916 170.441 106.27 170.441 106.707H169.41C169.41 106.023 169.617 105.461 170.031 105.02C170.449 104.574 170.982 104.352 171.631 104.352C172.303 104.352 172.836 104.562 173.23 104.984C173.625 105.402 173.822 105.996 173.822 106.766C173.822 107.16 173.719 107.529 173.512 107.873C173.309 108.213 173.043 108.463 172.715 108.623C173.52 108.92 173.922 109.586 173.922 110.621C173.922 111.383 173.709 111.99 173.283 112.443C172.861 112.893 172.309 113.117 171.625 113.117C170.949 113.117 170.402 112.904 169.984 112.479C169.57 112.049 169.363 111.473 169.363 110.75H170.4C170.4 111.203 170.51 111.564 170.729 111.834C170.947 112.1 171.246 112.232 171.625 112.232C172.012 112.232 172.318 112.102 172.545 111.84C172.775 111.578 172.891 111.18 172.891 110.645C172.891 109.609 172.4 109.092 171.42 109.092H170.799V108.207Z" fill="#121212" class="year-value" fill-opacity="0.72"/>

<!--Text Info--->
<path d="M25.7728 56.9325C25.7278 57.0075 25.6778 57.065 25.6228 57.105C25.5728 57.14 25.5103 57.1575 25.4353 57.1575C25.3503 57.1575 25.2503 57.115 25.1353 57.03C25.0203 56.945 24.8753 56.8525 24.7003 56.7525C24.5303 56.6475 24.3228 56.5525 24.0778 56.4675C23.8378 56.3825 23.5453 56.34 23.2003 56.34C22.8753 56.34 22.5878 56.385 22.3378 56.475C22.0928 56.56 21.8853 56.6775 21.7153 56.8275C21.5503 56.9775 21.4253 57.155 21.3403 57.36C21.2553 57.56 21.2128 57.7775 21.2128 58.0125C21.2128 58.3125 21.2853 58.5625 21.4303 58.7625C21.5803 58.9575 21.7753 59.125 22.0153 59.265C22.2603 59.405 22.5353 59.5275 22.8403 59.6325C23.1503 59.7325 23.4653 59.8375 23.7853 59.9475C24.1103 60.0575 24.4253 60.1825 24.7303 60.3225C25.0403 60.4575 25.3153 60.63 25.5553 60.84C25.8003 61.05 25.9953 61.3075 26.1403 61.6125C26.2903 61.9175 26.3653 62.2925 26.3653 62.7375C26.3653 63.2075 26.2853 63.65 26.1253 64.065C25.9653 64.475 25.7303 64.8325 25.4203 65.1375C25.1153 65.4425 24.7378 65.6825 24.2878 65.8575C23.8428 66.0325 23.3353 66.12 22.7653 66.12C22.0653 66.12 21.4303 65.995 20.8603 65.745C20.2903 65.49 19.8028 65.1475 19.3978 64.7175L19.8178 64.0275C19.8578 63.9725 19.9053 63.9275 19.9603 63.8925C20.0203 63.8525 20.0853 63.8325 20.1553 63.8325C20.2203 63.8325 20.2928 63.86 20.3728 63.915C20.4578 63.965 20.5528 64.03 20.6578 64.11C20.7628 64.19 20.8828 64.2775 21.0178 64.3725C21.1528 64.4675 21.3053 64.555 21.4753 64.635C21.6503 64.715 21.8478 64.7825 22.0678 64.8375C22.2878 64.8875 22.5353 64.9125 22.8103 64.9125C23.1553 64.9125 23.4628 64.865 23.7328 64.77C24.0028 64.675 24.2303 64.5425 24.4153 64.3725C24.6053 64.1975 24.7503 63.99 24.8503 63.75C24.9503 63.51 25.0003 63.2425 25.0003 62.9475C25.0003 62.6225 24.9253 62.3575 24.7753 62.1525C24.6303 61.9425 24.4378 61.7675 24.1978 61.6275C23.9578 61.4875 23.6828 61.37 23.3728 61.275C23.0628 61.175 22.7478 61.075 22.4278 60.975C22.1078 60.87 21.7928 60.75 21.4828 60.615C21.1728 60.48 20.8978 60.305 20.6578 60.09C20.4178 59.875 20.2228 59.6075 20.0728 59.2875C19.9278 58.9625 19.8553 58.5625 19.8553 58.0875C19.8553 57.7075 19.9278 57.34 20.0728 56.985C20.2228 56.63 20.4378 56.315 20.7178 56.04C21.0028 55.765 21.3503 55.545 21.7603 55.38C22.1753 55.215 22.6503 55.1325 23.1853 55.1325C23.7853 55.1325 24.3303 55.2275 24.8203 55.4175C25.3153 55.6075 25.7503 55.8825 26.1253 56.2425L25.7728 56.9325ZM33.3484 59.7525C33.3084 59.8075 33.2684 59.85 33.2284 59.88C33.1884 59.91 33.1334 59.925 33.0634 59.925C32.9884 59.925 32.9059 59.895 32.8159 59.835C32.7259 59.77 32.6134 59.7 32.4784 59.625C32.3484 59.55 32.1859 59.4825 31.9909 59.4225C31.8009 59.3575 31.5659 59.325 31.2859 59.325C30.9109 59.325 30.5809 59.3925 30.2959 59.5275C30.0109 59.6575 29.7709 59.8475 29.5759 60.0975C29.3859 60.3475 29.2409 60.65 29.1409 61.005C29.0459 61.36 28.9984 61.7575 28.9984 62.1975C28.9984 62.6575 29.0509 63.0675 29.1559 63.4275C29.2609 63.7825 29.4084 64.0825 29.5984 64.3275C29.7934 64.5675 30.0259 64.7525 30.2959 64.8825C30.5709 65.0075 30.8784 65.07 31.2184 65.07C31.5434 65.07 31.8109 65.0325 32.0209 64.9575C32.2309 64.8775 32.4034 64.79 32.5384 64.695C32.6784 64.6 32.7934 64.515 32.8834 64.44C32.9784 64.36 33.0709 64.32 33.1609 64.32C33.2709 64.32 33.3559 64.3625 33.4159 64.4475L33.7909 64.935C33.6259 65.14 33.4384 65.315 33.2284 65.46C33.0184 65.605 32.7909 65.7275 32.5459 65.8275C32.3059 65.9225 32.0534 65.9925 31.7884 66.0375C31.5234 66.0825 31.2534 66.105 30.9784 66.105C30.5034 66.105 30.0609 66.0175 29.6509 65.8425C29.2459 65.6675 28.8934 65.415 28.5934 65.085C28.2934 64.75 28.0584 64.34 27.8884 63.855C27.7184 63.37 27.6334 62.8175 27.6334 62.1975C27.6334 61.6325 27.7109 61.11 27.8659 60.63C28.0259 60.15 28.2559 59.7375 28.5559 59.3925C28.8609 59.0425 29.2334 58.77 29.6734 58.575C30.1184 58.38 30.6284 58.2825 31.2034 58.2825C31.7384 58.2825 32.2084 58.37 32.6134 58.545C33.0234 58.715 33.3859 58.9575 33.7009 59.2725L33.3484 59.7525ZM36.5665 59.415C36.8915 59.07 37.2515 58.795 37.6465 58.59C38.0415 58.385 38.4965 58.2825 39.0115 58.2825C39.4265 58.2825 39.7915 58.3525 40.1065 58.4925C40.4265 58.6275 40.6915 58.8225 40.9015 59.0775C41.1165 59.3275 41.279 59.63 41.389 59.985C41.499 60.34 41.554 60.7325 41.554 61.1625V66H40.2115V61.1625C40.2115 60.5875 40.079 60.1425 39.814 59.8275C39.554 59.5075 39.1565 59.3475 38.6215 59.3475C38.2265 59.3475 37.8565 59.4425 37.5115 59.6325C37.1715 59.8225 36.8565 60.08 36.5665 60.405V66H35.224V54.9525H36.5665V59.415ZM46.7908 58.2825C47.3458 58.2825 47.8458 58.375 48.2908 58.56C48.7358 58.745 49.1158 59.0075 49.4308 59.3475C49.7458 59.6875 49.9858 60.1 50.1508 60.585C50.3208 61.065 50.4058 61.6025 50.4058 62.1975C50.4058 62.7975 50.3208 63.3375 50.1508 63.8175C49.9858 64.2975 49.7458 64.7075 49.4308 65.0475C49.1158 65.3875 48.7358 65.65 48.2908 65.835C47.8458 66.015 47.3458 66.105 46.7908 66.105C46.2308 66.105 45.7258 66.015 45.2758 65.835C44.8308 65.65 44.4508 65.3875 44.1358 65.0475C43.8208 64.7075 43.5783 64.2975 43.4083 63.8175C43.2433 63.3375 43.1608 62.7975 43.1608 62.1975C43.1608 61.6025 43.2433 61.065 43.4083 60.585C43.5783 60.1 43.8208 59.6875 44.1358 59.3475C44.4508 59.0075 44.8308 58.745 45.2758 58.56C45.7258 58.375 46.2308 58.2825 46.7908 58.2825ZM46.7908 65.0625C47.5408 65.0625 48.1008 64.8125 48.4708 64.3125C48.8408 63.8075 49.0258 63.105 49.0258 62.205C49.0258 61.3 48.8408 60.595 48.4708 60.09C48.1008 59.585 47.5408 59.3325 46.7908 59.3325C46.4108 59.3325 46.0783 59.3975 45.7933 59.5275C45.5133 59.6575 45.2783 59.845 45.0883 60.09C44.9033 60.335 44.7633 60.6375 44.6683 60.9975C44.5783 61.3525 44.5333 61.755 44.5333 62.205C44.5333 63.105 44.7183 63.8075 45.0883 64.3125C45.4633 64.8125 46.0308 65.0625 46.7908 65.0625ZM55.3015 58.2825C55.8565 58.2825 56.3565 58.375 56.8015 58.56C57.2465 58.745 57.6265 59.0075 57.9415 59.3475C58.2565 59.6875 58.4965 60.1 58.6615 60.585C58.8315 61.065 58.9165 61.6025 58.9165 62.1975C58.9165 62.7975 58.8315 63.3375 58.6615 63.8175C58.4965 64.2975 58.2565 64.7075 57.9415 65.0475C57.6265 65.3875 57.2465 65.65 56.8015 65.835C56.3565 66.015 55.8565 66.105 55.3015 66.105C54.7415 66.105 54.2365 66.015 53.7865 65.835C53.3415 65.65 52.9615 65.3875 52.6465 65.0475C52.3315 64.7075 52.089 64.2975 51.919 63.8175C51.754 63.3375 51.6715 62.7975 51.6715 62.1975C51.6715 61.6025 51.754 61.065 51.919 60.585C52.089 60.1 52.3315 59.6875 52.6465 59.3475C52.9615 59.0075 53.3415 58.745 53.7865 58.56C54.2365 58.375 54.7415 58.2825 55.3015 58.2825ZM55.3015 65.0625C56.0515 65.0625 56.6115 64.8125 56.9815 64.3125C57.3515 63.8075 57.5365 63.105 57.5365 62.205C57.5365 61.3 57.3515 60.595 56.9815 60.09C56.6115 59.585 56.0515 59.3325 55.3015 59.3325C54.9215 59.3325 54.589 59.3975 54.304 59.5275C54.024 59.6575 53.789 59.845 53.599 60.09C53.414 60.335 53.274 60.6375 53.179 60.9975C53.089 61.3525 53.044 61.755 53.044 62.205C53.044 63.105 53.229 63.8075 53.599 64.3125C53.974 64.8125 54.5415 65.0625 55.3015 65.0625ZM61.9897 54.9525V66H60.6547V54.9525H61.9897Z" fill="#121212" fill-opacity="0.72" class="text-info"/>
<path d="M256.177 64.567L256.169 65.752H249.547V55.0045H256.169V56.1895H251.002V59.7595H255.187V60.8995H251.002V64.567H256.177ZM258.944 59.257C259.109 59.072 259.284 58.9045 259.469 58.7545C259.654 58.6045 259.849 58.477 260.054 58.372C260.264 58.262 260.484 58.1795 260.714 58.1245C260.949 58.0645 261.201 58.0345 261.471 58.0345C261.886 58.0345 262.251 58.1045 262.566 58.2445C262.886 58.3795 263.151 58.5745 263.361 58.8295C263.576 59.0795 263.739 59.382 263.849 59.737C263.959 60.092 264.014 60.4845 264.014 60.9145V65.752H262.671V60.9145C262.671 60.3395 262.539 59.8945 262.274 59.5795C262.014 59.2595 261.616 59.0995 261.081 59.0995C260.686 59.0995 260.316 59.1945 259.971 59.3845C259.631 59.5745 259.316 59.832 259.026 60.157V65.752H257.684V58.1545H258.486C258.676 58.1545 258.794 58.247 258.839 58.432L258.944 59.257ZM268.696 62.0395C268.966 62.0395 269.203 62.002 269.408 61.927C269.613 61.852 269.786 61.747 269.926 61.612C270.066 61.477 270.171 61.317 270.241 61.132C270.311 60.942 270.346 60.7345 270.346 60.5095C270.346 60.0445 270.203 59.6745 269.918 59.3995C269.638 59.1245 269.231 58.987 268.696 58.987C268.156 58.987 267.743 59.1245 267.458 59.3995C267.178 59.6745 267.038 60.0445 267.038 60.5095C267.038 60.7345 267.073 60.942 267.143 61.132C267.218 61.317 267.326 61.477 267.466 61.612C267.606 61.747 267.778 61.852 267.983 61.927C268.188 62.002 268.426 62.0395 268.696 62.0395ZM271.103 66.1645C271.103 65.9795 271.051 65.8295 270.946 65.7145C270.841 65.5995 270.698 65.5095 270.518 65.4445C270.343 65.3795 270.138 65.3345 269.903 65.3095C269.668 65.2795 269.418 65.257 269.153 65.242C268.893 65.227 268.628 65.212 268.358 65.197C268.088 65.182 267.828 65.157 267.578 65.122C267.298 65.252 267.068 65.417 266.888 65.617C266.713 65.812 266.626 66.042 266.626 66.307C266.626 66.477 266.668 66.6345 266.753 66.7795C266.843 66.9295 266.978 67.057 267.158 67.162C267.338 67.272 267.563 67.357 267.833 67.417C268.108 67.482 268.431 67.5145 268.801 67.5145C269.161 67.5145 269.483 67.482 269.768 67.417C270.053 67.352 270.293 67.2595 270.488 67.1395C270.688 67.0195 270.841 66.877 270.946 66.712C271.051 66.547 271.103 66.3645 271.103 66.1645ZM272.461 58.4545V58.9495C272.461 59.1145 272.356 59.2195 272.146 59.2645L271.283 59.377C271.453 59.707 271.538 60.072 271.538 60.472C271.538 60.842 271.466 61.1795 271.321 61.4845C271.181 61.7845 270.986 62.042 270.736 62.257C270.486 62.472 270.186 62.637 269.836 62.752C269.486 62.867 269.106 62.9245 268.696 62.9245C268.341 62.9245 268.006 62.882 267.691 62.797C267.531 62.897 267.408 63.0045 267.323 63.1195C267.238 63.2295 267.196 63.342 267.196 63.457C267.196 63.637 267.268 63.7745 267.413 63.8695C267.563 63.9595 267.758 64.0245 267.998 64.0645C268.238 64.1045 268.511 64.1295 268.816 64.1395C269.126 64.1495 269.441 64.167 269.761 64.192C270.086 64.212 270.401 64.2495 270.706 64.3045C271.016 64.3595 271.291 64.4495 271.531 64.5745C271.771 64.6995 271.963 64.872 272.108 65.092C272.258 65.312 272.333 65.597 272.333 65.947C272.333 66.272 272.251 66.587 272.086 66.892C271.926 67.197 271.693 67.467 271.388 67.702C271.083 67.942 270.708 68.132 270.263 68.272C269.823 68.417 269.326 68.4895 268.771 68.4895C268.216 68.4895 267.731 68.4345 267.316 68.3245C266.901 68.2145 266.556 68.067 266.281 67.882C266.006 67.697 265.798 67.482 265.658 67.237C265.523 66.997 265.456 66.7445 265.456 66.4795C265.456 66.1045 265.573 65.787 265.808 65.527C266.043 65.267 266.366 65.0595 266.776 64.9045C266.551 64.8045 266.371 64.672 266.236 64.507C266.106 64.337 266.041 64.1095 266.041 63.8245C266.041 63.7145 266.061 63.602 266.101 63.487C266.141 63.367 266.201 63.2495 266.281 63.1345C266.366 63.0145 266.468 62.902 266.588 62.797C266.708 62.692 266.848 62.5995 267.008 62.5195C266.633 62.3095 266.341 62.032 266.131 61.687C265.921 61.337 265.816 60.932 265.816 60.472C265.816 60.102 265.886 59.767 266.026 59.467C266.171 59.162 266.371 58.9045 266.626 58.6945C266.881 58.4795 267.183 58.3145 267.533 58.1995C267.888 58.0845 268.276 58.027 268.696 58.027C269.026 58.027 269.333 58.0645 269.618 58.1395C269.903 58.2095 270.163 58.3145 270.398 58.4545H272.461ZM275.251 58.1545V65.752H273.916V58.1545H275.251ZM275.536 55.7695C275.536 55.8995 275.509 56.022 275.454 56.137C275.404 56.247 275.334 56.347 275.244 56.437C275.159 56.522 275.056 56.5895 274.936 56.6395C274.821 56.6895 274.699 56.7145 274.569 56.7145C274.439 56.7145 274.316 56.6895 274.201 56.6395C274.091 56.5895 273.994 56.522 273.909 56.437C273.824 56.347 273.756 56.247 273.706 56.137C273.656 56.022 273.631 55.8995 273.631 55.7695C273.631 55.6395 273.656 55.517 273.706 55.402C273.756 55.282 273.824 55.1795 273.909 55.0945C273.994 55.0045 274.091 54.9345 274.201 54.8845C274.316 54.8345 274.439 54.8095 274.569 54.8095C274.699 54.8095 274.821 54.8345 274.936 54.8845C275.056 54.9345 275.159 55.0045 275.244 55.0945C275.334 55.1795 275.404 55.282 275.454 55.402C275.509 55.517 275.536 55.6395 275.536 55.7695ZM278.705 59.257C278.87 59.072 279.045 58.9045 279.23 58.7545C279.415 58.6045 279.61 58.477 279.815 58.372C280.025 58.262 280.245 58.1795 280.475 58.1245C280.71 58.0645 280.962 58.0345 281.232 58.0345C281.647 58.0345 282.012 58.1045 282.327 58.2445C282.647 58.3795 282.912 58.5745 283.122 58.8295C283.337 59.0795 283.5 59.382 283.61 59.737C283.72 60.092 283.775 60.4845 283.775 60.9145V65.752H282.432V60.9145C282.432 60.3395 282.3 59.8945 282.035 59.5795C281.775 59.2595 281.377 59.0995 280.842 59.0995C280.447 59.0995 280.077 59.1945 279.732 59.3845C279.392 59.5745 279.077 59.832 278.787 60.157V65.752H277.445V58.1545H278.247C278.437 58.1545 278.555 58.247 278.6 58.432L278.705 59.257ZM290.894 61.1245C290.894 60.8145 290.849 60.532 290.759 60.277C290.674 60.017 290.546 59.7945 290.376 59.6095C290.211 59.4195 290.009 59.2745 289.769 59.1745C289.529 59.0695 289.256 59.017 288.951 59.017C288.311 59.017 287.804 59.2045 287.429 59.5795C287.059 59.9495 286.829 60.4645 286.739 61.1245H290.894ZM291.974 64.687C291.809 64.887 291.611 65.062 291.381 65.212C291.151 65.357 290.904 65.477 290.639 65.572C290.379 65.667 290.109 65.737 289.829 65.782C289.549 65.832 289.271 65.857 288.996 65.857C288.471 65.857 287.986 65.7695 287.541 65.5945C287.101 65.4145 286.719 65.1545 286.394 64.8145C286.074 64.4695 285.824 64.0445 285.644 63.5395C285.464 63.0345 285.374 62.4545 285.374 61.7995C285.374 61.2695 285.454 60.7745 285.614 60.3145C285.779 59.8545 286.014 59.457 286.319 59.122C286.624 58.782 286.996 58.517 287.436 58.327C287.876 58.132 288.371 58.0345 288.921 58.0345C289.376 58.0345 289.796 58.112 290.181 58.267C290.571 58.417 290.906 58.637 291.186 58.927C291.471 59.212 291.694 59.567 291.854 59.992C292.014 60.412 292.094 60.892 292.094 61.432C292.094 61.642 292.071 61.782 292.026 61.852C291.981 61.922 291.896 61.957 291.771 61.957H286.694C286.709 62.437 286.774 62.8545 286.889 63.2095C287.009 63.5645 287.174 63.862 287.384 64.102C287.594 64.337 287.844 64.5145 288.134 64.6345C288.424 64.7495 288.749 64.807 289.109 64.807C289.444 64.807 289.731 64.7695 289.971 64.6945C290.216 64.6145 290.426 64.5295 290.601 64.4395C290.776 64.3495 290.921 64.267 291.036 64.192C291.156 64.112 291.259 64.072 291.344 64.072C291.454 64.072 291.539 64.1145 291.599 64.1995L291.974 64.687ZM298.819 61.1245C298.819 60.8145 298.774 60.532 298.684 60.277C298.599 60.017 298.471 59.7945 298.301 59.6095C298.136 59.4195 297.934 59.2745 297.694 59.1745C297.454 59.0695 297.181 59.017 296.876 59.017C296.236 59.017 295.729 59.2045 295.354 59.5795C294.984 59.9495 294.754 60.4645 294.664 61.1245H298.819ZM299.899 64.687C299.734 64.887 299.536 65.062 299.306 65.212C299.076 65.357 298.829 65.477 298.564 65.572C298.304 65.667 298.034 65.737 297.754 65.782C297.474 65.832 297.196 65.857 296.921 65.857C296.396 65.857 295.911 65.7695 295.466 65.5945C295.026 65.4145 294.644 65.1545 294.319 64.8145C293.999 64.4695 293.749 64.0445 293.569 63.5395C293.389 63.0345 293.299 62.4545 293.299 61.7995C293.299 61.2695 293.379 60.7745 293.539 60.3145C293.704 59.8545 293.939 59.457 294.244 59.122C294.549 58.782 294.921 58.517 295.361 58.327C295.801 58.132 296.296 58.0345 296.846 58.0345C297.301 58.0345 297.721 58.112 298.106 58.267C298.496 58.417 298.831 58.637 299.111 58.927C299.396 59.212 299.619 59.567 299.779 59.992C299.939 60.412 300.019 60.892 300.019 61.432C300.019 61.642 299.996 61.782 299.951 61.852C299.906 61.922 299.821 61.957 299.696 61.957H294.619C294.634 62.437 294.699 62.8545 294.814 63.2095C294.934 63.5645 295.099 63.862 295.309 64.102C295.519 64.337 295.769 64.5145 296.059 64.6345C296.349 64.7495 296.674 64.807 297.034 64.807C297.369 64.807 297.656 64.7695 297.896 64.6945C298.141 64.6145 298.351 64.5295 298.526 64.4395C298.701 64.3495 298.846 64.267 298.961 64.192C299.081 64.112 299.184 64.072 299.269 64.072C299.379 64.072 299.464 64.1145 299.524 64.1995L299.899 64.687ZM302.926 59.677C303.166 59.157 303.461 58.752 303.811 58.462C304.161 58.167 304.589 58.0195 305.094 58.0195C305.254 58.0195 305.406 58.037 305.551 58.072C305.701 58.107 305.834 58.162 305.949 58.237L305.851 59.2345C305.821 59.3595 305.746 59.422 305.626 59.422C305.556 59.422 305.454 59.407 305.319 59.377C305.184 59.347 305.031 59.332 304.861 59.332C304.621 59.332 304.406 59.367 304.216 59.437C304.031 59.507 303.864 59.612 303.714 59.752C303.569 59.887 303.436 60.057 303.316 60.262C303.201 60.462 303.096 60.692 303.001 60.952V65.752H301.659V58.1545H302.424C302.569 58.1545 302.669 58.182 302.724 58.237C302.779 58.292 302.816 58.387 302.836 58.522L302.926 59.677ZM308.532 58.1545V65.752H307.197V58.1545H308.532ZM308.817 55.7695C308.817 55.8995 308.79 56.022 308.735 56.137C308.685 56.247 308.615 56.347 308.525 56.437C308.44 56.522 308.337 56.5895 308.217 56.6395C308.102 56.6895 307.98 56.7145 307.85 56.7145C307.72 56.7145 307.597 56.6895 307.482 56.6395C307.372 56.5895 307.275 56.522 307.19 56.437C307.105 56.347 307.037 56.247 306.987 56.137C306.937 56.022 306.912 55.8995 306.912 55.7695C306.912 55.6395 306.937 55.517 306.987 55.402C307.037 55.282 307.105 55.1795 307.19 55.0945C307.275 55.0045 307.372 54.9345 307.482 54.8845C307.597 54.8345 307.72 54.8095 307.85 54.8095C307.98 54.8095 308.102 54.8345 308.217 54.8845C308.337 54.9345 308.44 55.0045 308.525 55.0945C308.615 55.1795 308.685 55.282 308.735 55.402C308.79 55.517 308.817 55.6395 308.817 55.7695ZM311.986 59.257C312.151 59.072 312.326 58.9045 312.511 58.7545C312.696 58.6045 312.891 58.477 313.096 58.372C313.306 58.262 313.526 58.1795 313.756 58.1245C313.991 58.0645 314.243 58.0345 314.513 58.0345C314.928 58.0345 315.293 58.1045 315.608 58.2445C315.928 58.3795 316.193 58.5745 316.403 58.8295C316.618 59.0795 316.781 59.382 316.891 59.737C317.001 60.092 317.056 60.4845 317.056 60.9145V65.752H315.713V60.9145C315.713 60.3395 315.581 59.8945 315.316 59.5795C315.056 59.2595 314.658 59.0995 314.123 59.0995C313.728 59.0995 313.358 59.1945 313.013 59.3845C312.673 59.5745 312.358 59.832 312.068 60.157V65.752H310.726V58.1545H311.528C311.718 58.1545 311.836 58.247 311.881 58.432L311.986 59.257ZM321.738 62.0395C322.008 62.0395 322.245 62.002 322.45 61.927C322.655 61.852 322.828 61.747 322.968 61.612C323.108 61.477 323.213 61.317 323.283 61.132C323.353 60.942 323.388 60.7345 323.388 60.5095C323.388 60.0445 323.245 59.6745 322.96 59.3995C322.68 59.1245 322.273 58.987 321.738 58.987C321.198 58.987 320.785 59.1245 320.5 59.3995C320.22 59.6745 320.08 60.0445 320.08 60.5095C320.08 60.7345 320.115 60.942 320.185 61.132C320.26 61.317 320.368 61.477 320.508 61.612C320.648 61.747 320.82 61.852 321.025 61.927C321.23 62.002 321.468 62.0395 321.738 62.0395ZM324.145 66.1645C324.145 65.9795 324.093 65.8295 323.988 65.7145C323.883 65.5995 323.74 65.5095 323.56 65.4445C323.385 65.3795 323.18 65.3345 322.945 65.3095C322.71 65.2795 322.46 65.257 322.195 65.242C321.935 65.227 321.67 65.212 321.4 65.197C321.13 65.182 320.87 65.157 320.62 65.122C320.34 65.252 320.11 65.417 319.93 65.617C319.755 65.812 319.668 66.042 319.668 66.307C319.668 66.477 319.71 66.6345 319.795 66.7795C319.885 66.9295 320.02 67.057 320.2 67.162C320.38 67.272 320.605 67.357 320.875 67.417C321.15 67.482 321.473 67.5145 321.843 67.5145C322.203 67.5145 322.525 67.482 322.81 67.417C323.095 67.352 323.335 67.2595 323.53 67.1395C323.73 67.0195 323.883 66.877 323.988 66.712C324.093 66.547 324.145 66.3645 324.145 66.1645ZM325.503 58.4545V58.9495C325.503 59.1145 325.398 59.2195 325.188 59.2645L324.325 59.377C324.495 59.707 324.58 60.072 324.58 60.472C324.58 60.842 324.508 61.1795 324.363 61.4845C324.223 61.7845 324.028 62.042 323.778 62.257C323.528 62.472 323.228 62.637 322.878 62.752C322.528 62.867 322.148 62.9245 321.738 62.9245C321.383 62.9245 321.048 62.882 320.733 62.797C320.573 62.897 320.45 63.0045 320.365 63.1195C320.28 63.2295 320.238 63.342 320.238 63.457C320.238 63.637 320.31 63.7745 320.455 63.8695C320.605 63.9595 320.8 64.0245 321.04 64.0645C321.28 64.1045 321.553 64.1295 321.858 64.1395C322.168 64.1495 322.483 64.167 322.803 64.192C323.128 64.212 323.443 64.2495 323.748 64.3045C324.058 64.3595 324.333 64.4495 324.573 64.5745C324.813 64.6995 325.005 64.872 325.15 65.092C325.3 65.312 325.375 65.597 325.375 65.947C325.375 66.272 325.293 66.587 325.128 66.892C324.968 67.197 324.735 67.467 324.43 67.702C324.125 67.942 323.75 68.132 323.305 68.272C322.865 68.417 322.368 68.4895 321.813 68.4895C321.258 68.4895 320.773 68.4345 320.358 68.3245C319.943 68.2145 319.598 68.067 319.323 67.882C319.048 67.697 318.84 67.482 318.7 67.237C318.565 66.997 318.498 66.7445 318.498 66.4795C318.498 66.1045 318.615 65.787 318.85 65.527C319.085 65.267 319.408 65.0595 319.818 64.9045C319.593 64.8045 319.413 64.672 319.278 64.507C319.148 64.337 319.083 64.1095 319.083 63.8245C319.083 63.7145 319.103 63.602 319.143 63.487C319.183 63.367 319.243 63.2495 319.323 63.1345C319.408 63.0145 319.51 62.902 319.63 62.797C319.75 62.692 319.89 62.5995 320.05 62.5195C319.675 62.3095 319.383 62.032 319.173 61.687C318.963 61.337 318.858 60.932 318.858 60.472C318.858 60.102 318.928 59.767 319.068 59.467C319.213 59.162 319.413 58.9045 319.668 58.6945C319.923 58.4795 320.225 58.3145 320.575 58.1995C320.93 58.0845 321.318 58.027 321.738 58.027C322.068 58.027 322.375 58.0645 322.66 58.1395C322.945 58.2095 323.205 58.3145 323.44 58.4545H325.503Z" fill="#121212" fill-opacity="0.72" class="text-info"/>
<path d="M491.3 55.2525L487.948 66H486.643L483.92 57.8025C483.895 57.7225 483.87 57.6375 483.845 57.5475C483.825 57.4575 483.803 57.3625 483.778 57.2625C483.753 57.3625 483.728 57.4575 483.703 57.5475C483.678 57.6375 483.653 57.7225 483.628 57.8025L480.89 66H479.585L476.233 55.2525H477.44C477.57 55.2525 477.678 55.285 477.763 55.35C477.853 55.415 477.91 55.4975 477.935 55.5975L480.155 63.0675C480.19 63.2025 480.223 63.3475 480.253 63.5025C480.288 63.6575 480.32 63.8225 480.35 63.9975C480.385 63.8225 480.42 63.6575 480.455 63.5025C480.495 63.3425 480.538 63.1975 480.583 63.0675L483.11 55.5975C483.14 55.5125 483.198 55.435 483.283 55.365C483.373 55.29 483.48 55.2525 483.605 55.2525H484.025C484.155 55.2525 484.26 55.285 484.34 55.35C484.42 55.415 484.48 55.4975 484.52 55.5975L487.04 63.0675C487.085 63.1975 487.125 63.3375 487.16 63.4875C487.2 63.6375 487.238 63.795 487.273 63.96C487.298 63.795 487.325 63.6375 487.355 63.4875C487.385 63.3375 487.418 63.1975 487.453 63.0675L489.68 55.5975C489.705 55.5075 489.76 55.4275 489.845 55.3575C489.935 55.2875 490.043 55.2525 490.168 55.2525H491.3ZM494.938 58.2825C495.493 58.2825 495.993 58.375 496.438 58.56C496.883 58.745 497.263 59.0075 497.578 59.3475C497.893 59.6875 498.133 60.1 498.298 60.585C498.468 61.065 498.553 61.6025 498.553 62.1975C498.553 62.7975 498.468 63.3375 498.298 63.8175C498.133 64.2975 497.893 64.7075 497.578 65.0475C497.263 65.3875 496.883 65.65 496.438 65.835C495.993 66.015 495.493 66.105 494.938 66.105C494.378 66.105 493.873 66.015 493.423 65.835C492.978 65.65 492.598 65.3875 492.283 65.0475C491.968 64.7075 491.725 64.2975 491.555 63.8175C491.39 63.3375 491.308 62.7975 491.308 62.1975C491.308 61.6025 491.39 61.065 491.555 60.585C491.725 60.1 491.968 59.6875 492.283 59.3475C492.598 59.0075 492.978 58.745 493.423 58.56C493.873 58.375 494.378 58.2825 494.938 58.2825ZM494.938 65.0625C495.688 65.0625 496.248 64.8125 496.618 64.3125C496.988 63.8075 497.173 63.105 497.173 62.205C497.173 61.3 496.988 60.595 496.618 60.09C496.248 59.585 495.688 59.3325 494.938 59.3325C494.558 59.3325 494.225 59.3975 493.94 59.5275C493.66 59.6575 493.425 59.845 493.235 60.09C493.05 60.335 492.91 60.6375 492.815 60.9975C492.725 61.3525 492.68 61.755 492.68 62.205C492.68 63.105 492.865 63.8075 493.235 64.3125C493.61 64.8125 494.178 65.0625 494.938 65.0625ZM501.513 59.925C501.753 59.405 502.048 59 502.398 58.71C502.748 58.415 503.176 58.2675 503.681 58.2675C503.841 58.2675 503.993 58.285 504.138 58.32C504.288 58.355 504.421 58.41 504.536 58.485L504.438 59.4825C504.408 59.6075 504.333 59.67 504.213 59.67C504.143 59.67 504.041 59.655 503.906 59.625C503.771 59.595 503.618 59.58 503.448 59.58C503.208 59.58 502.993 59.615 502.803 59.685C502.618 59.755 502.451 59.86 502.301 60C502.156 60.135 502.023 60.305 501.903 60.51C501.788 60.71 501.683 60.94 501.588 61.2V66H500.246V58.4025H501.011C501.156 58.4025 501.256 58.43 501.311 58.485C501.366 58.54 501.403 58.635 501.423 58.77L501.513 59.925ZM507.052 54.9525V61.455H507.397C507.497 61.455 507.58 61.4425 507.645 61.4175C507.715 61.3875 507.787 61.33 507.862 61.245L510.262 58.6725C510.332 58.5875 510.405 58.5225 510.48 58.4775C510.56 58.4275 510.665 58.4025 510.795 58.4025H512.002L509.205 61.38C509.07 61.55 508.925 61.6825 508.77 61.7775C508.86 61.8375 508.94 61.9075 509.01 61.9875C509.085 62.0625 509.155 62.15 509.22 62.25L512.19 66H510.997C510.882 66 510.782 65.9825 510.697 65.9475C510.617 65.9075 510.547 65.8375 510.487 65.7375L507.99 62.625C507.915 62.52 507.84 62.4525 507.765 62.4225C507.695 62.3875 507.585 62.37 507.435 62.37H507.052V66H505.71V54.9525H507.052ZM514.737 58.4025V66H513.402V58.4025H514.737ZM515.022 56.0175C515.022 56.1475 514.995 56.27 514.94 56.385C514.89 56.495 514.82 56.595 514.73 56.685C514.645 56.77 514.542 56.8375 514.422 56.8875C514.307 56.9375 514.185 56.9625 514.055 56.9625C513.925 56.9625 513.802 56.9375 513.687 56.8875C513.577 56.8375 513.48 56.77 513.395 56.685C513.31 56.595 513.242 56.495 513.192 56.385C513.142 56.27 513.117 56.1475 513.117 56.0175C513.117 55.8875 513.142 55.765 513.192 55.65C513.242 55.53 513.31 55.4275 513.395 55.3425C513.48 55.2525 513.577 55.1825 513.687 55.1325C513.802 55.0825 513.925 55.0575 514.055 55.0575C514.185 55.0575 514.307 55.0825 514.422 55.1325C514.542 55.1825 514.645 55.2525 514.73 55.3425C514.82 55.4275 514.89 55.53 514.94 55.65C514.995 55.765 515.022 55.8875 515.022 56.0175ZM518.191 59.505C518.356 59.32 518.531 59.1525 518.716 59.0025C518.901 58.8525 519.096 58.725 519.301 58.62C519.511 58.51 519.731 58.4275 519.961 58.3725C520.196 58.3125 520.448 58.2825 520.718 58.2825C521.133 58.2825 521.498 58.3525 521.813 58.4925C522.133 58.6275 522.398 58.8225 522.608 59.0775C522.823 59.3275 522.986 59.63 523.096 59.985C523.206 60.34 523.261 60.7325 523.261 61.1625V66H521.918V61.1625C521.918 60.5875 521.786 60.1425 521.521 59.8275C521.261 59.5075 520.863 59.3475 520.328 59.3475C519.933 59.3475 519.563 59.4425 519.218 59.6325C518.878 59.8225 518.563 60.08 518.273 60.405V66H516.931V58.4025H517.733C517.923 58.4025 518.041 58.495 518.086 58.68L518.191 59.505ZM527.942 62.2875C528.212 62.2875 528.45 62.25 528.655 62.175C528.86 62.1 529.032 61.995 529.172 61.86C529.312 61.725 529.417 61.565 529.487 61.38C529.557 61.19 529.592 60.9825 529.592 60.7575C529.592 60.2925 529.45 59.9225 529.165 59.6475C528.885 59.3725 528.477 59.235 527.942 59.235C527.402 59.235 526.99 59.3725 526.705 59.6475C526.425 59.9225 526.285 60.2925 526.285 60.7575C526.285 60.9825 526.32 61.19 526.39 61.38C526.465 61.565 526.572 61.725 526.712 61.86C526.852 61.995 527.025 62.1 527.23 62.175C527.435 62.25 527.672 62.2875 527.942 62.2875ZM530.35 66.4125C530.35 66.2275 530.297 66.0775 530.192 65.9625C530.087 65.8475 529.945 65.7575 529.765 65.6925C529.59 65.6275 529.385 65.5825 529.15 65.5575C528.915 65.5275 528.665 65.505 528.4 65.49C528.14 65.475 527.875 65.46 527.605 65.445C527.335 65.43 527.075 65.405 526.825 65.37C526.545 65.5 526.315 65.665 526.135 65.865C525.96 66.06 525.872 66.29 525.872 66.555C525.872 66.725 525.915 66.8825 526 67.0275C526.09 67.1775 526.225 67.305 526.405 67.41C526.585 67.52 526.81 67.605 527.08 67.665C527.355 67.73 527.677 67.7625 528.047 67.7625C528.407 67.7625 528.73 67.73 529.015 67.665C529.3 67.6 529.54 67.5075 529.735 67.3875C529.935 67.2675 530.087 67.125 530.192 66.96C530.297 66.795 530.35 66.6125 530.35 66.4125ZM531.707 58.7025V59.1975C531.707 59.3625 531.602 59.4675 531.392 59.5125L530.53 59.625C530.7 59.955 530.785 60.32 530.785 60.72C530.785 61.09 530.712 61.4275 530.567 61.7325C530.427 62.0325 530.232 62.29 529.982 62.505C529.732 62.72 529.432 62.885 529.082 63C528.732 63.115 528.352 63.1725 527.942 63.1725C527.587 63.1725 527.252 63.13 526.937 63.045C526.777 63.145 526.655 63.2525 526.57 63.3675C526.485 63.4775 526.442 63.59 526.442 63.705C526.442 63.885 526.515 64.0225 526.66 64.1175C526.81 64.2075 527.005 64.2725 527.245 64.3125C527.485 64.3525 527.757 64.3775 528.062 64.3875C528.372 64.3975 528.687 64.415 529.007 64.44C529.332 64.46 529.647 64.4975 529.952 64.5525C530.262 64.6075 530.537 64.6975 530.777 64.8225C531.017 64.9475 531.21 65.12 531.355 65.34C531.505 65.56 531.58 65.845 531.58 66.195C531.58 66.52 531.497 66.835 531.332 67.14C531.172 67.445 530.94 67.715 530.635 67.95C530.33 68.19 529.955 68.38 529.51 68.52C529.07 68.665 528.572 68.7375 528.017 68.7375C527.462 68.7375 526.977 68.6825 526.562 68.5725C526.147 68.4625 525.802 68.315 525.527 68.13C525.252 67.945 525.045 67.73 524.905 67.485C524.77 67.245 524.702 66.9925 524.702 66.7275C524.702 66.3525 524.82 66.035 525.055 65.775C525.29 65.515 525.612 65.3075 526.022 65.1525C525.797 65.0525 525.617 64.92 525.482 64.755C525.352 64.585 525.287 64.3575 525.287 64.0725C525.287 63.9625 525.307 63.85 525.347 63.735C525.387 63.615 525.447 63.4975 525.527 63.3825C525.612 63.2625 525.715 63.15 525.835 63.045C525.955 62.94 526.095 62.8475 526.255 62.7675C525.88 62.5575 525.587 62.28 525.377 61.935C525.167 61.585 525.062 61.18 525.062 60.72C525.062 60.35 525.132 60.015 525.272 59.715C525.417 59.41 525.617 59.1525 525.872 58.9425C526.127 58.7275 526.43 58.5625 526.78 58.4475C527.135 58.3325 527.522 58.275 527.942 58.275C528.272 58.275 528.58 58.3125 528.865 58.3875C529.15 58.4575 529.41 58.5625 529.645 58.7025H531.707Z" fill="#121212" fill-opacity="0.72" class="text-info"/>
<path d="M319.609 5.9325C319.564 6.0075 319.514 6.065 319.459 6.105C319.409 6.14 319.347 6.1575 319.272 6.1575C319.187 6.1575 319.087 6.115 318.972 6.03C318.857 5.945 318.712 5.8525 318.537 5.7525C318.367 5.6475 318.159 5.5525 317.914 5.4675C317.674 5.3825 317.382 5.34 317.037 5.34C316.712 5.34 316.424 5.385 316.174 5.475C315.929 5.56 315.722 5.6775 315.552 5.8275C315.387 5.9775 315.262 6.155 315.177 6.36C315.092 6.56 315.049 6.7775 315.049 7.0125C315.049 7.3125 315.122 7.5625 315.267 7.7625C315.417 7.9575 315.612 8.125 315.852 8.265C316.097 8.405 316.372 8.5275 316.677 8.6325C316.987 8.7325 317.302 8.8375 317.622 8.9475C317.947 9.0575 318.262 9.1825 318.567 9.3225C318.877 9.4575 319.152 9.63 319.392 9.84C319.637 10.05 319.832 10.3075 319.977 10.6125C320.127 10.9175 320.202 11.2925 320.202 11.7375C320.202 12.2075 320.122 12.65 319.962 13.065C319.802 13.475 319.567 13.8325 319.257 14.1375C318.952 14.4425 318.574 14.6825 318.124 14.8575C317.679 15.0325 317.172 15.12 316.602 15.12C315.902 15.12 315.267 14.995 314.697 14.745C314.127 14.49 313.639 14.1475 313.234 13.7175L313.654 13.0275C313.694 12.9725 313.742 12.9275 313.797 12.8925C313.857 12.8525 313.922 12.8325 313.992 12.8325C314.057 12.8325 314.129 12.86 314.209 12.915C314.294 12.965 314.389 13.03 314.494 13.11C314.599 13.19 314.719 13.2775 314.854 13.3725C314.989 13.4675 315.142 13.555 315.312 13.635C315.487 13.715 315.684 13.7825 315.904 13.8375C316.124 13.8875 316.372 13.9125 316.647 13.9125C316.992 13.9125 317.299 13.865 317.569 13.77C317.839 13.675 318.067 13.5425 318.252 13.3725C318.442 13.1975 318.587 12.99 318.687 12.75C318.787 12.51 318.837 12.2425 318.837 11.9475C318.837 11.6225 318.762 11.3575 318.612 11.1525C318.467 10.9425 318.274 10.7675 318.034 10.6275C317.794 10.4875 317.519 10.37 317.209 10.275C316.899 10.175 316.584 10.075 316.264 9.975C315.944 9.87 315.629 9.75 315.319 9.615C315.009 9.48 314.734 9.305 314.494 9.09C314.254 8.875 314.059 8.6075 313.909 8.2875C313.764 7.9625 313.692 7.5625 313.692 7.0875C313.692 6.7075 313.764 6.34 313.909 5.985C314.059 5.63 314.274 5.315 314.554 5.04C314.839 4.765 315.187 4.545 315.597 4.38C316.012 4.215 316.487 4.1325 317.022 4.1325C317.622 4.1325 318.167 4.2275 318.657 4.4175C319.152 4.6075 319.587 4.8825 319.962 5.2425L319.609 5.9325ZM326.982 10.3725C326.982 10.0625 326.937 9.78 326.847 9.525C326.762 9.265 326.635 9.0425 326.465 8.8575C326.3 8.6675 326.097 8.5225 325.857 8.4225C325.617 8.3175 325.345 8.265 325.04 8.265C324.4 8.265 323.892 8.4525 323.517 8.8275C323.147 9.1975 322.917 9.7125 322.827 10.3725H326.982ZM328.062 13.935C327.897 14.135 327.7 14.31 327.47 14.46C327.24 14.605 326.992 14.725 326.727 14.82C326.467 14.915 326.197 14.985 325.917 15.03C325.637 15.08 325.36 15.105 325.085 15.105C324.56 15.105 324.075 15.0175 323.63 14.8425C323.19 14.6625 322.807 14.4025 322.482 14.0625C322.162 13.7175 321.912 13.2925 321.732 12.7875C321.552 12.2825 321.462 11.7025 321.462 11.0475C321.462 10.5175 321.542 10.0225 321.702 9.5625C321.867 9.1025 322.102 8.705 322.407 8.37C322.712 8.03 323.085 7.765 323.525 7.575C323.965 7.38 324.46 7.2825 325.01 7.2825C325.465 7.2825 325.885 7.36 326.27 7.515C326.66 7.665 326.995 7.885 327.275 8.175C327.56 8.46 327.782 8.815 327.942 9.24C328.102 9.66 328.182 10.14 328.182 10.68C328.182 10.89 328.16 11.03 328.115 11.1C328.07 11.17 327.985 11.205 327.86 11.205H322.782C322.797 11.685 322.862 12.1025 322.977 12.4575C323.097 12.8125 323.262 13.11 323.472 13.35C323.682 13.585 323.932 13.7625 324.222 13.8825C324.512 13.9975 324.837 14.055 325.197 14.055C325.532 14.055 325.82 14.0175 326.06 13.9425C326.305 13.8625 326.515 13.7775 326.69 13.6875C326.865 13.5975 327.01 13.515 327.125 13.44C327.245 13.36 327.347 13.32 327.432 13.32C327.542 13.32 327.627 13.3625 327.687 13.4475L328.062 13.935ZM331.202 3.9525V15H329.867V3.9525H331.202ZM333.862 15V8.5425L333.022 8.445C332.917 8.42 332.83 8.3825 332.76 8.3325C332.695 8.2775 332.662 8.2 332.662 8.1V7.5525H333.862V6.8175C333.862 6.3825 333.922 5.9975 334.042 5.6625C334.167 5.3225 334.342 5.0375 334.567 4.8075C334.797 4.5725 335.072 4.395 335.392 4.275C335.712 4.155 336.072 4.095 336.472 4.095C336.812 4.095 337.125 4.145 337.41 4.245L337.38 4.9125C337.37 5.0325 337.302 5.0975 337.177 5.1075C337.057 5.1175 336.895 5.1225 336.69 5.1225C336.46 5.1225 336.25 5.1525 336.06 5.2125C335.875 5.2725 335.715 5.37 335.58 5.505C335.445 5.64 335.34 5.8175 335.265 6.0375C335.195 6.2575 335.16 6.53 335.16 6.855V7.5525H337.35V8.52H335.205V15H333.862ZM348.598 13.7775V15H342.5V4.2525H343.948V13.7775H348.598ZM354.434 10.3725C354.434 10.0625 354.389 9.78 354.299 9.525C354.214 9.265 354.086 9.0425 353.916 8.8575C353.751 8.6675 353.549 8.5225 353.309 8.4225C353.069 8.3175 352.796 8.265 352.491 8.265C351.851 8.265 351.344 8.4525 350.969 8.8275C350.599 9.1975 350.369 9.7125 350.279 10.3725H354.434ZM355.514 13.935C355.349 14.135 355.151 14.31 354.921 14.46C354.691 14.605 354.444 14.725 354.179 14.82C353.919 14.915 353.649 14.985 353.369 15.03C353.089 15.08 352.811 15.105 352.536 15.105C352.011 15.105 351.526 15.0175 351.081 14.8425C350.641 14.6625 350.259 14.4025 349.934 14.0625C349.614 13.7175 349.364 13.2925 349.184 12.7875C349.004 12.2825 348.914 11.7025 348.914 11.0475C348.914 10.5175 348.994 10.0225 349.154 9.5625C349.319 9.1025 349.554 8.705 349.859 8.37C350.164 8.03 350.536 7.765 350.976 7.575C351.416 7.38 351.911 7.2825 352.461 7.2825C352.916 7.2825 353.336 7.36 353.721 7.515C354.111 7.665 354.446 7.885 354.726 8.175C355.011 8.46 355.234 8.815 355.394 9.24C355.554 9.66 355.634 10.14 355.634 10.68C355.634 10.89 355.611 11.03 355.566 11.1C355.521 11.17 355.436 11.205 355.311 11.205H350.234C350.249 11.685 350.314 12.1025 350.429 12.4575C350.549 12.8125 350.714 13.11 350.924 13.35C351.134 13.585 351.384 13.7625 351.674 13.8825C351.964 13.9975 352.289 14.055 352.649 14.055C352.984 14.055 353.271 14.0175 353.511 13.9425C353.756 13.8625 353.966 13.7775 354.141 13.6875C354.316 13.5975 354.461 13.515 354.576 13.44C354.696 13.36 354.799 13.32 354.884 13.32C354.994 13.32 355.079 13.3625 355.139 13.4475L355.514 13.935ZM361.391 11.58C360.776 11.6 360.251 11.65 359.816 11.73C359.386 11.805 359.033 11.905 358.758 12.03C358.488 12.155 358.291 12.3025 358.166 12.4725C358.046 12.6425 357.986 12.8325 357.986 13.0425C357.986 13.2425 358.018 13.415 358.083 13.56C358.148 13.705 358.236 13.825 358.346 13.92C358.461 14.01 358.593 14.0775 358.743 14.1225C358.898 14.1625 359.063 14.1825 359.238 14.1825C359.473 14.1825 359.688 14.16 359.883 14.115C360.078 14.065 360.261 13.995 360.431 13.905C360.606 13.815 360.771 13.7075 360.926 13.5825C361.086 13.4575 361.241 13.315 361.391 13.155V11.58ZM357.078 8.475C357.498 8.07 357.951 7.7675 358.436 7.5675C358.921 7.3675 359.458 7.2675 360.048 7.2675C360.473 7.2675 360.851 7.3375 361.181 7.4775C361.511 7.6175 361.788 7.8125 362.013 8.0625C362.238 8.3125 362.408 8.615 362.523 8.97C362.638 9.325 362.696 9.715 362.696 10.14V15H362.103C361.973 15 361.873 14.98 361.803 14.94C361.733 14.895 361.678 14.81 361.638 14.685L361.488 13.965C361.288 14.15 361.093 14.315 360.903 14.46C360.713 14.6 360.513 14.72 360.303 14.82C360.093 14.915 359.868 14.9875 359.628 15.0375C359.393 15.0925 359.131 15.12 358.841 15.12C358.546 15.12 358.268 15.08 358.008 15C357.748 14.915 357.521 14.79 357.326 14.625C357.136 14.46 356.983 14.2525 356.868 14.0025C356.758 13.7475 356.703 13.4475 356.703 13.1025C356.703 12.8025 356.786 12.515 356.951 12.24C357.116 11.96 357.383 11.7125 357.753 11.4975C358.123 11.2825 358.606 11.1075 359.201 10.9725C359.796 10.8325 360.526 10.7525 361.391 10.7325V10.14C361.391 9.55 361.263 9.105 361.008 8.805C360.753 8.5 360.381 8.3475 359.891 8.3475C359.561 8.3475 359.283 8.39 359.058 8.475C358.838 8.555 358.646 8.6475 358.481 8.7525C358.321 8.8525 358.181 8.945 358.061 9.03C357.946 9.11 357.831 9.15 357.716 9.15C357.626 9.15 357.548 9.1275 357.483 9.0825C357.418 9.0325 357.363 8.9725 357.318 8.9025L357.078 8.475ZM365.997 8.925C366.237 8.405 366.532 8 366.882 7.71C367.232 7.415 367.659 7.2675 368.164 7.2675C368.324 7.2675 368.477 7.285 368.622 7.32C368.772 7.355 368.904 7.41 369.019 7.485L368.922 8.4825C368.892 8.6075 368.817 8.67 368.697 8.67C368.627 8.67 368.524 8.655 368.389 8.625C368.254 8.595 368.102 8.58 367.932 8.58C367.692 8.58 367.477 8.615 367.287 8.685C367.102 8.755 366.934 8.86 366.784 9C366.639 9.135 366.507 9.305 366.387 9.51C366.272 9.71 366.167 9.94 366.072 10.2V15H364.729V7.4025H365.494C365.639 7.4025 365.739 7.43 365.794 7.485C365.849 7.54 365.887 7.635 365.907 7.77L365.997 8.925ZM371.453 8.505C371.618 8.32 371.793 8.1525 371.978 8.0025C372.163 7.8525 372.358 7.725 372.563 7.62C372.773 7.51 372.993 7.4275 373.223 7.3725C373.458 7.3125 373.711 7.2825 373.981 7.2825C374.396 7.2825 374.761 7.3525 375.076 7.4925C375.396 7.6275 375.661 7.8225 375.871 8.0775C376.086 8.3275 376.248 8.63 376.358 8.985C376.468 9.34 376.523 9.7325 376.523 10.1625V15H375.181V10.1625C375.181 9.5875 375.048 9.1425 374.783 8.8275C374.523 8.5075 374.126 8.3475 373.591 8.3475C373.196 8.3475 372.826 8.4425 372.481 8.6325C372.141 8.8225 371.826 9.08 371.536 9.405V15H370.193V7.4025H370.996C371.186 7.4025 371.303 7.495 371.348 7.68L371.453 8.505ZM379.968 7.4025V15H378.633V7.4025H379.968ZM380.253 5.0175C380.253 5.1475 380.225 5.27 380.17 5.385C380.12 5.495 380.05 5.595 379.96 5.685C379.875 5.77 379.773 5.8375 379.653 5.8875C379.537 5.9375 379.415 5.9625 379.285 5.9625C379.155 5.9625 379.033 5.9375 378.918 5.8875C378.808 5.8375 378.71 5.77 378.625 5.685C378.54 5.595 378.473 5.495 378.423 5.385C378.373 5.27 378.348 5.1475 378.348 5.0175C378.348 4.8875 378.373 4.765 378.423 4.65C378.473 4.53 378.54 4.4275 378.625 4.3425C378.71 4.2525 378.808 4.1825 378.918 4.1325C379.033 4.0825 379.155 4.0575 379.285 4.0575C379.415 4.0575 379.537 4.0825 379.653 4.1325C379.773 4.1825 379.875 4.2525 379.96 4.3425C380.05 4.4275 380.12 4.53 380.17 4.65C380.225 4.765 380.253 4.8875 380.253 5.0175ZM383.421 8.505C383.586 8.32 383.761 8.1525 383.946 8.0025C384.131 7.8525 384.326 7.725 384.531 7.62C384.741 7.51 384.961 7.4275 385.191 7.3725C385.426 7.3125 385.679 7.2825 385.949 7.2825C386.364 7.2825 386.729 7.3525 387.044 7.4925C387.364 7.6275 387.629 7.8225 387.839 8.0775C388.054 8.3275 388.216 8.63 388.326 8.985C388.436 9.34 388.491 9.7325 388.491 10.1625V15H387.149V10.1625C387.149 9.5875 387.016 9.1425 386.751 8.8275C386.491 8.5075 386.094 8.3475 385.559 8.3475C385.164 8.3475 384.794 8.4425 384.449 8.6325C384.109 8.8225 383.794 9.08 383.504 9.405V15H382.161V7.4025H382.964C383.154 7.4025 383.271 7.495 383.316 7.68L383.421 8.505ZM393.173 11.2875C393.443 11.2875 393.68 11.25 393.885 11.175C394.09 11.1 394.263 10.995 394.403 10.86C394.543 10.725 394.648 10.565 394.718 10.38C394.788 10.19 394.823 9.9825 394.823 9.7575C394.823 9.2925 394.68 8.9225 394.395 8.6475C394.115 8.3725 393.708 8.235 393.173 8.235C392.633 8.235 392.22 8.3725 391.935 8.6475C391.655 8.9225 391.515 9.2925 391.515 9.7575C391.515 9.9825 391.55 10.19 391.62 10.38C391.695 10.565 391.803 10.725 391.943 10.86C392.083 10.995 392.255 11.1 392.46 11.175C392.665 11.25 392.903 11.2875 393.173 11.2875ZM395.58 15.4125C395.58 15.2275 395.528 15.0775 395.423 14.9625C395.318 14.8475 395.175 14.7575 394.995 14.6925C394.82 14.6275 394.615 14.5825 394.38 14.5575C394.145 14.5275 393.895 14.505 393.63 14.49C393.37 14.475 393.105 14.46 392.835 14.445C392.565 14.43 392.305 14.405 392.055 14.37C391.775 14.5 391.545 14.665 391.365 14.865C391.19 15.06 391.103 15.29 391.103 15.555C391.103 15.725 391.145 15.8825 391.23 16.0275C391.32 16.1775 391.455 16.305 391.635 16.41C391.815 16.52 392.04 16.605 392.31 16.665C392.585 16.73 392.908 16.7625 393.278 16.7625C393.638 16.7625 393.96 16.73 394.245 16.665C394.53 16.6 394.77 16.5075 394.965 16.3875C395.165 16.2675 395.318 16.125 395.423 15.96C395.528 15.795 395.58 15.6125 395.58 15.4125ZM396.938 7.7025V8.1975C396.938 8.3625 396.833 8.4675 396.623 8.5125L395.76 8.625C395.93 8.955 396.015 9.32 396.015 9.72C396.015 10.09 395.943 10.4275 395.798 10.7325C395.658 11.0325 395.463 11.29 395.213 11.505C394.963 11.72 394.663 11.885 394.313 12C393.963 12.115 393.583 12.1725 393.173 12.1725C392.818 12.1725 392.483 12.13 392.168 12.045C392.008 12.145 391.885 12.2525 391.8 12.3675C391.715 12.4775 391.673 12.59 391.673 12.705C391.673 12.885 391.745 13.0225 391.89 13.1175C392.04 13.2075 392.235 13.2725 392.475 13.3125C392.715 13.3525 392.988 13.3775 393.293 13.3875C393.603 13.3975 393.918 13.415 394.238 13.44C394.563 13.46 394.878 13.4975 395.183 13.5525C395.493 13.6075 395.768 13.6975 396.008 13.8225C396.248 13.9475 396.44 14.12 396.585 14.34C396.735 14.56 396.81 14.845 396.81 15.195C396.81 15.52 396.728 15.835 396.563 16.14C396.403 16.445 396.17 16.715 395.865 16.95C395.56 17.19 395.185 17.38 394.74 17.52C394.3 17.665 393.803 17.7375 393.248 17.7375C392.693 17.7375 392.208 17.6825 391.793 17.5725C391.378 17.4625 391.033 17.315 390.758 17.13C390.483 16.945 390.275 16.73 390.135 16.485C390 16.245 389.933 15.9925 389.933 15.7275C389.933 15.3525 390.05 15.035 390.285 14.775C390.52 14.515 390.843 14.3075 391.253 14.1525C391.028 14.0525 390.848 13.92 390.713 13.755C390.583 13.585 390.518 13.3575 390.518 13.0725C390.518 12.9625 390.538 12.85 390.578 12.735C390.618 12.615 390.678 12.4975 390.758 12.3825C390.843 12.2625 390.945 12.15 391.065 12.045C391.185 11.94 391.325 11.8475 391.485 11.7675C391.11 11.5575 390.818 11.28 390.608 10.935C390.398 10.585 390.293 10.18 390.293 9.72C390.293 9.35 390.363 9.015 390.503 8.715C390.648 8.41 390.848 8.1525 391.103 7.9425C391.358 7.7275 391.66 7.5625 392.01 7.4475C392.365 7.3325 392.753 7.275 393.173 7.275C393.503 7.275 393.81 7.3125 394.095 7.3875C394.38 7.4575 394.64 7.5625 394.875 7.7025H396.938Z" fill="#121212" fill-opacity="0.72" class="text-info"/>








</svg>
