<svg width="303" height="73" viewBox="0 0 303 73" fill="none" xmlns="http://www.w3.org/2000/svg">
<path d="M9.64384 71.5H10.1438V71V22.0402V21.5402H9.64384H2.21987H1.71987V22.0402V71V71.5H2.21987H9.64384ZM9.40294 12.8914L9.403 12.8914L9.40953 12.8851C10.4049 11.9252 10.8594 10.5223 10.8594 8.77282C10.8594 7.0248 10.4055 5.63127 9.40294 4.69895C8.44476 3.80788 7.29411 3.35897 5.97658 3.35897C4.60803 3.35897 3.43783 3.80247 2.50248 4.70174C1.5269 5.60896 1.09375 7.00673 1.09375 8.77282C1.09375 10.5178 1.53085 11.9183 2.49264 12.879L2.49258 12.879L2.49913 12.8853C3.43503 13.7868 4.60639 14.2313 5.97658 14.2313C7.29411 14.2313 8.44476 13.7824 9.40294 12.8914Z" stroke="black"/>
<path d="M52.2674 69.9273L52.3513 70.3237H52.7565H58.2574H58.7574V69.8237V36.4095C58.7574 30.6209 57.3244 26.3021 54.3472 23.5781C51.4137 20.8668 46.9434 19.5598 41.0392 19.5598C38.1037 19.5598 35.1698 19.9377 32.2383 20.6923L32.2371 20.6927C29.3386 21.4466 26.6618 22.4883 24.2086 23.8194L23.8169 24.0319L23.9831 24.4454L26.264 30.1187L26.4639 30.6159L26.9461 30.382C32.0618 27.9009 36.607 26.6798 40.592 26.6798C44.1551 26.6798 46.6267 27.5841 48.134 29.2814L48.134 29.2814L48.1398 29.2877C49.6881 30.9724 50.5124 33.6534 50.5124 37.4369V39.9904L42.6789 40.2428C42.6786 40.2428 42.6783 40.2429 42.6781 40.2429C34.7257 40.4823 28.6801 41.9032 24.6093 44.5681C20.5027 47.2563 18.4462 51.1851 18.4462 56.2882C18.4462 61.0081 19.8525 64.7156 22.7237 67.3341L22.7257 67.3359C25.6153 69.9429 29.5643 71.2171 34.5097 71.2171C38.1923 71.2171 41.2931 70.6749 43.7913 69.5659L43.7938 69.5648C46.2069 68.4772 48.5849 66.4864 50.9347 63.6346L52.2674 69.9273ZM46.508 60.4383L46.506 60.4402C43.9986 62.8593 40.5136 64.0971 35.9855 64.0971C33.1412 64.0971 30.9906 63.4165 29.4691 62.1186C27.9965 60.8373 27.2279 58.9521 27.2279 56.3776C27.2279 53.1007 28.4556 50.7576 30.8823 49.2531L30.8836 49.2523C33.3918 47.6864 37.5449 46.7659 43.4271 46.5582L43.4305 46.5581L50.3335 46.2673V50.1683C50.3335 54.6234 49.0397 58.0231 46.508 60.4383Z" stroke="black"/>
<path d="M128.822 70.866V71.366H129.322H136.746H137.246V70.866V38.926C137.246 32.6155 135.849 27.9175 132.945 24.953C130.076 21.9632 125.779 20.5128 120.154 20.5128C116.534 20.5128 113.29 21.273 110.436 22.8058C107.765 24.24 105.676 26.1653 104.18 28.5814C102.956 25.9837 101.122 24.0014 98.6827 22.6524C96.0833 21.2151 92.8255 20.5128 88.9372 20.5128C85.7037 20.5128 82.7609 21.199 80.1188 22.5798L80.1167 22.581C77.7442 23.8356 75.8461 25.5381 74.4314 27.6863L73.3738 21.8175L73.2997 21.4062H72.8817H66.8442H66.3442V21.9062V70.866V71.366H66.8442H74.2681H74.7681V70.866V45.18C74.7681 38.8687 75.8408 34.4524 77.8831 31.8172C79.9369 29.1757 83.1809 27.8114 87.7297 27.8114C91.1888 27.8114 93.6324 28.7674 95.1751 30.5834L95.1775 30.5863C96.7368 32.394 97.5606 35.1733 97.5606 39.0153V70.866V71.366H98.0606H105.485H105.985V70.866V43.5271C105.985 38.069 107.08 34.1277 109.178 31.6071C111.26 29.1063 114.509 27.8114 119.036 27.8114C122.463 27.8114 124.893 28.7665 126.436 30.5835L126.439 30.5863C127.998 32.394 128.822 35.1733 128.822 39.0153V70.866Z" stroke="black"/>
<path d="M176.715 22.61L176.784 22.1421L176.321 22.0464C174.552 21.6808 172.564 21.5 170.361 21.5C167.19 21.5 164.275 22.3938 161.629 24.1763C159.215 25.8029 157.133 28.0505 155.38 30.9041L154.625 22.8468L154.582 22.3934H154.127H148H147.5V22.8934V71.8532V72.3532H148H155.424H155.924V71.8532V45.5865C155.924 40.897 157.291 37.0131 160.004 33.8993C162.75 30.7816 166.016 29.2454 169.825 29.2454C171.329 29.2454 173.081 29.4624 175.084 29.9037L175.607 30.0189L175.686 29.4894L176.715 22.61Z" fill="black" stroke="black"/>
<path d="M215.181 70.5086V71.0086H215.681H223.105H223.605V70.5086V38.5686C223.605 32.3061 222.084 27.6328 218.933 24.6705C215.823 21.6902 211.19 20.2447 205.127 20.2447C201.601 20.2447 198.437 20.9433 195.645 22.3528C193.245 23.5515 191.31 25.1505 189.851 27.151C189.993 25.6958 190.063 23.9913 190.063 22.0402V1V0.5H189.563H182.139H181.639V1V70.5086V71.0086H182.139H189.563H190.063V70.5086V44.9119C190.063 38.5784 191.238 34.1395 193.478 31.4762C195.735 28.8286 199.339 27.4541 204.411 27.4541C208.211 27.4541 210.898 28.4173 212.586 30.2419C214.286 32.0786 215.181 34.9114 215.181 38.8366V70.5086Z" stroke="black"/>
<path d="M293.67 70.866V71.366H294.17H301.594H302.094V70.866V38.926C302.094 32.6155 300.697 27.9175 297.793 24.953C294.924 21.9632 290.627 20.5128 285.002 20.5128C281.382 20.5128 278.138 21.273 275.284 22.8058C272.613 24.24 270.524 26.1653 269.028 28.5814C267.804 25.9837 265.97 24.0014 263.531 22.6524C260.931 21.2151 257.673 20.5128 253.785 20.5128C250.552 20.5128 247.609 21.199 244.967 22.5798L244.965 22.581C242.592 23.8356 240.694 25.5381 239.279 27.6863L238.222 21.8175L238.148 21.4062H237.73H231.692H231.192V21.9062V70.866V71.366H231.692H239.116H239.616V70.866V45.18C239.616 38.8687 240.689 34.4524 242.731 31.8172C244.785 29.1757 248.029 27.8114 252.578 27.8114C256.037 27.8114 258.48 28.7674 260.023 30.5834L260.026 30.5863C261.585 32.394 262.409 35.1733 262.409 39.0153V70.866V71.366H262.909H270.333H270.833V70.866V43.5271C270.833 38.069 271.928 34.1277 274.026 31.6071C276.108 29.1063 279.357 27.8114 283.884 27.8114C287.311 27.8114 289.741 28.7665 291.284 30.5835L291.287 30.5863C292.846 32.394 293.67 35.1733 293.67 39.0153V70.866Z" stroke="black"/>
<path d="M174.047 21.6228L174.117 21.1549L173.654 21.0592C171.885 20.6935 169.897 20.5128 167.694 20.5128C164.523 20.5128 161.608 21.4065 158.962 23.189C156.547 24.8157 154.466 27.0633 152.712 29.9168L151.957 21.8595L151.915 21.4062H151.46H145.333H144.833V21.9062V70.866V71.366H145.333H152.757H153.257V70.866V44.5992C153.257 39.9097 154.624 36.0258 157.337 32.9121C160.083 29.7944 163.348 28.2581 167.157 28.2581C168.662 28.2581 170.413 28.4751 172.416 28.9165L172.939 29.0317L173.018 28.5022L174.047 21.6228Z" stroke="black"/>
<path d="M9.80919 13.0324L9.80924 13.0324L9.81578 13.0261C10.8111 12.0662 11.2657 10.6634 11.2657 8.91385C11.2657 7.16583 10.8117 5.7723 9.80919 4.83998C8.85101 3.94891 7.70036 3.5 6.38283 3.5C5.01428 3.5 3.84407 3.9435 2.90872 4.84277C1.93314 5.75 1.5 7.14776 1.5 8.91385C1.5 10.6588 1.93709 12.0593 2.89888 13.02L2.89882 13.0201L2.90537 13.0264C3.84127 13.9278 5.01264 14.3724 6.38283 14.3724C7.70036 14.3724 8.85101 13.9235 9.80919 13.0324Z" fill="black" stroke="black"/>
</svg>
