<svg id="er0c9pgtlu51" xmlns="http://www.w3.org/2000/svg" xmlns:xlink="http://www.w3.org/1999/xlink" viewBox="0 0 600 300" shape-rendering="geometricPrecision" text-rendering="geometricPrecision"><rect id="er0c9pgtlu52" width="600" height="300" rx="0" ry="0" transform="matrix(1 0 0 1 0 -0.00000000000003)" fill="rgb(18,18,18)" stroke="none" stroke-width="1"/><g id="er0c9pgtlu53" transform="matrix(1 0 0 1.09484568405339 -0.21445014500000 72.58993127247595)"><path id="er0c9pgtlu54" d="M64.818400,99L52.243700,99L52.243700,70.759600L33.617600,70.759600L33.617600,99L21,99L21,33L33.617600,33L33.617600,59.699200L52.243700,59.699200L52.243700,33L64.818400,33L64.818400,99Z" fill="rgb(255,255,255)" stroke="none" stroke-width="1"/><path id="er0c9pgtlu55" d="M86.620300,99L74.517600,99L74.517600,46.190900L86.620300,46.190900L86.620300,99Z" fill="rgb(255,255,255)" stroke="none" stroke-width="1"/></g><g id="er0c9pgtlu56" transform="matrix(1 0 0 1.08487043255533 -1.00598559499997 -96.21025262239334)"><path id="er0c9pgtlu57" d="M63.700400,232.026000L69.618600,191L82.098300,191L70.990900,256.283000L58.339700,256.283000L51.049200,217.813000L43.844400,256.283000L31.150200,256.283000L20,191L32.565500,191L38.440800,231.981000L45.774200,191L56.367000,191L63.700400,232.026000Z" fill="rgb(255,255,255)" stroke="none" stroke-width="1"/><path id="er0c9pgtlu58" d="M116.278000,234.582000L99.981600,234.582000L99.981600,245.791000L119.366000,245.791000L119.366000,256.283000L87.845000,256.283000L87.845000,204.048000L119.409000,204.048000L119.409000,214.629000L99.981600,214.629000L99.981600,224.045000L116.278000,224.045000L116.278000,234.582000Z" fill="rgb(255,255,255)" stroke="none" stroke-width="1"/><path id="er0c9pgtlu59" d="M124.984000,256.283000L124.984000,204.048000L141.967000,204.048000C147.799000,204.048000,152.245000,205.288000,155.304000,207.769000C158.392000,210.220000,159.936000,213.792000,159.936000,218.485000C159.936000,221.145000,159.378000,223.462000,158.263000,225.435000C157.148000,227.408000,155.504000,228.857000,153.331000,229.784000C155.676000,230.501000,157.491000,231.876000,158.778000,233.909000C160.064000,235.912000,160.708000,238.378000,160.708000,241.307000C160.708000,246.508000,159.264000,250.304000,156.376000,252.696000C153.488000,255.087000,149.143000,256.283000,143.339000,256.283000L124.984000,256.283000ZM137.121000,234.582000L137.121000,245.791000L143.339000,245.791000C145.026000,245.791000,146.312000,245.313000,147.199000,244.356000C148.114000,243.399000,148.571000,242.084000,148.571000,240.410000C148.571000,236.644000,147.113000,234.701000,144.197000,234.582000L137.121000,234.582000ZM137.121000,225.749000L142.953000,225.749000C146.184000,225.659000,147.799000,223.865000,147.799000,220.368000C147.799000,218.306000,147.399000,216.841000,146.598000,215.974000C145.798000,215.077000,144.568000,214.629000,142.910000,214.629000L137.121000,214.629000L137.121000,225.749000Z" fill="rgb(255,255,255)" stroke="none" stroke-width="1"/><path id="er0c9pgtlu510" d="M188.283000,256.283000L188.283000,204.048000L202.950000,204.048000C207.038000,204.048000,210.698000,205.109000,213.929000,207.231000C217.159000,209.353000,219.675000,212.342000,221.476000,216.198000C223.306000,220.024000,224.221000,224.344000,224.221000,229.156000L224.221000,231.219000C224.221000,238.452000,222.263000,244.446000,218.346000,249.198000C214.457000,253.921000,209.268000,256.283000,202.778000,256.283000L188.283000,256.283000ZM200.420000,214.629000L200.420000,245.791000L203.079000,245.791000C206.252000,245.791000,208.525000,244.745000,209.897000,242.652000C211.298000,240.560000,212.027000,237.003000,212.084000,231.981000L212.084000,229.111000C212.084000,223.851000,211.384000,220.129000,209.983000,217.947000C208.611000,215.765000,206.338000,214.659000,203.164000,214.629000L200.420000,214.629000Z" fill="rgb(255,255,255)" stroke="none" stroke-width="1"/><path id="er0c9pgtlu511" d="M259.430000,234.582000L243.134000,234.582000L243.134000,245.791000L262.518000,245.791000L262.518000,256.283000L230.997000,256.283000L230.997000,204.048000L262.561000,204.048000L262.561000,214.629000L243.134000,214.629000L243.134000,224.045000L259.430000,224.045000L259.430000,234.582000Z" fill="rgb(255,255,255)" stroke="none" stroke-width="1"/><path id="er0c9pgtlu512" d="M285.976000,241.890000L286.234000,243.459000L286.491000,242.069000L295.111000,204.048000L307.848000,204.048000L292.838000,256.283000L279.672000,256.283000L264.748000,204.048000L277.485000,204.048000L285.976000,241.890000Z" fill="rgb(255,255,255)" stroke="none" stroke-width="1"/><path id="er0c9pgtlu513" d="M340.827000,234.582000L324.530000,234.582000L324.530000,245.791000L343.915000,245.791000L343.915000,256.283000L312.394000,256.283000L312.394000,204.048000L343.958000,204.048000L343.958000,214.629000L324.530000,214.629000L324.530000,224.045000L340.827000,224.045000L340.827000,234.582000Z" fill="rgb(255,255,255)" stroke="none" stroke-width="1"/><path id="er0c9pgtlu514" d="M361.669000,245.791000L380.024000,245.791000L380.024000,256.283000L349.533000,256.283000L349.533000,204.048000L361.669000,204.048000L361.669000,245.791000Z" fill="rgb(255,255,255)" stroke="none" stroke-width="1"/><path id="er0c9pgtlu515" d="M424.111000,231.219000C424.111000,236.330000,423.282000,240.844000,421.623000,244.760000C419.965000,248.645000,417.606000,251.664000,414.547000,253.817000C411.488000,255.939000,408.014000,257,404.126000,257C400.238000,257,396.750000,255.954000,393.662000,253.861000C390.603000,251.769000,388.216000,248.750000,386.500000,244.804000C384.813000,240.859000,383.970000,236.330000,383.970000,231.219000L383.970000,229.201000C383.970000,224.060000,384.799000,219.531000,386.457000,215.615000C388.144000,211.670000,390.517000,208.636000,393.576000,206.514000C396.635000,204.391000,400.123000,203.330000,404.040000,203.330000C409.758000,203.330000,414.447000,205.512000,418.107000,209.876000C421.766000,214.211000,423.753000,220.010000,424.068000,227.273000L424.111000,231.219000ZM411.974000,229.156000C411.974000,224.224000,411.274000,220.443000,409.873000,217.813000C408.500000,215.152000,406.556000,213.822000,404.040000,213.822000C401.439000,213.822000,399.466000,215.152000,398.122000,217.813000C396.778000,220.443000,396.106000,224.224000,396.106000,229.156000L396.106000,231.219000C396.106000,236.181000,396.807000,239.992000,398.208000,242.652000C399.637000,245.283000,401.610000,246.598000,404.126000,246.598000C406.556000,246.598000,408.458000,245.268000,409.830000,242.607000C411.231000,239.917000,411.946000,236.196000,411.974000,231.443000L411.974000,229.156000Z" fill="rgb(255,255,255)" stroke="none" stroke-width="1"/><path id="er0c9pgtlu516" d="M443.066000,239.155000L443.066000,256.283000L430.930000,256.283000L430.930000,204.048000L449.499000,204.048000C454.845000,204.048000,459.163000,205.736000,462.450000,209.114000C465.738000,212.462000,467.382000,216.826000,467.382000,222.207000C467.382000,227.318000,465.767000,231.413000,462.536000,234.492000C459.306000,237.571000,455.003000,239.125000,449.628000,239.155000L443.066000,239.155000ZM443.066000,228.618000L449.499000,228.618000C451.472000,228.618000,452.930000,228.020000,453.873000,226.825000C454.817000,225.629000,455.289000,224.120000,455.289000,222.296000C455.289000,219.965000,454.760000,218.111000,453.702000,216.736000C452.644000,215.332000,451.243000,214.629000,449.499000,214.629000L443.066000,214.629000L443.066000,228.618000Z" fill="rgb(255,255,255)" stroke="none" stroke-width="1"/><path id="er0c9pgtlu517" d="M502.849000,234.582000L486.552000,234.582000L486.552000,245.791000L505.936000,245.791000L505.936000,256.283000L474.416000,256.283000L474.416000,204.048000L505.979000,204.048000L505.979000,214.629000L486.552000,214.629000L486.552000,224.045000L502.849000,224.045000L502.849000,234.582000Z" fill="rgb(255,255,255)" stroke="none" stroke-width="1"/><path id="er0c9pgtlu518" d="M528.065000,238.303000L523.734000,238.303000L523.734000,256.283000L511.554000,256.283000L511.554000,204.048000L529.652000,204.048000C535.170000,204.048000,539.444000,205.408000,542.475000,208.128000C545.534000,210.848000,547.064000,214.719000,547.064000,219.740000C547.064000,223.387000,546.478000,226.421000,545.305000,228.842000C544.133000,231.234000,542.189000,233.207000,539.473000,234.761000L548.608000,255.745000L548.608000,256.283000L535.527000,256.283000L528.065000,238.303000ZM523.734000,227.766000L529.438000,227.766000C533.097000,227.766000,534.927000,225.569000,534.927000,221.175000C534.927000,216.841000,533.183000,214.659000,529.695000,214.629000L523.734000,214.629000L523.734000,227.766000Z" fill="rgb(255,255,255)" stroke="none" stroke-width="1"/></g><path id="er0c9pgtlu519" d="M1.500000,101.457034L599.500000,101.457034L599.500000,189.863375L1.500000,189.863375L1.500000,101.457034Z" transform="matrix(1 0 0 1 -1.49999999999977 0.50000000000024)" fill="rgb(18,18,18)" stroke="rgb(255,255,255)" stroke-width="0" stroke-opacity="0"/><g id="er0c9pgtlu520" transform="matrix(1 0 0 1.05226186490038 0 -7.61021581213183)"><path id="er0c9pgtlu521" d="M418,165L425.499500,165L425.499500,167.567676L418,167.567676L418,165Z" transform="matrix(0.26668442907271 0 0 0.77891442761686 291.52590865131754 121.47911944562432)" opacity="0" fill="rgb(255,255,255)" stroke="none" stroke-width="0" stroke-opacity="0"/><path id="er0c9pgtlu522" d="M385.203000,178L374.266000,178L374.266000,112L385.203000,112L385.203000,178Z" opacity="0" fill="rgb(255,255,255)" stroke="none" stroke-width="0" stroke-opacity="0"/><path id="er0c9pgtlu523" d="M366.123000,112L366.123000,154.399000C366.123000,159.371000,365.385000,163.671000,363.909000,167.298000C362.433000,170.887000,360.320000,173.616000,357.571000,175.486000C354.822000,177.318000,351.580000,178.234000,347.847000,178.234000C342.145000,178.234000,337.660000,176.121000,334.389000,171.896000C331.148000,167.672000,329.527000,161.764000,329.527000,154.174000L329.527000,112L341.813000,112L341.813000,154.343000C341.813000,158.156000,342.305000,160.904000,343.289000,162.587000C344.302000,164.269000,345.821000,165.110000,347.847000,165.110000C349.873000,165.110000,351.363000,164.269000,352.318000,162.587000C353.302000,160.904000,353.794000,158.156000,353.794000,154.343000L353.794000,112L366.123000,112Z" opacity="0" fill="rgb(255,255,255)" stroke="none" stroke-width="1"/><path id="er0c9pgtlu524" d="M320.744000,178.234000L309.267000,178.234000L309.267000,152.479000L295.707000,152.479000L295.707000,178.234000L284.149000,178.234000L284.149000,112L295.707000,112L295.707000,139.119000L309.267000,139.119000L309.267000,112L320.744000,112L320.744000,178.234000Z" opacity="0" fill="rgb(255,255,255)" stroke="none" stroke-width="1"/><path id="er0c9pgtlu525" d="M263.308000,165.669000L249.980000,165.669000L247.539000,178.234000L236.574000,178.234000L251.491000,112L261.758000,112L276.829000,178.234000L265.826000,178.234000L263.308000,165.669000ZM252.382000,153.560000L260.867000,153.560000L256.566000,132.183000L252.382000,153.560000Z" opacity="0" fill="rgb(255,255,255)" stroke="none" stroke-width="1"/><path id="er0c9pgtlu526" d="M208.966000,155.436000L204.688000,155.436000L204.688000,178.234000L192.659000,178.234000L192.659000,112L210.534000,112C215.983000,112,220.205000,113.725000,223.198000,117.174000C226.219000,120.623000,227.730000,125.531000,227.730000,131.899000C227.730000,136.523000,227.151000,140.370000,225.994000,143.440000C224.836000,146.472000,222.916000,148.973000,220.233000,150.944000L229.255000,177.552000L229.255000,178.234000L216.336000,178.234000L208.966000,155.436000ZM204.688000,142.075000L210.322000,142.075000C213.936000,142.075000,215.743000,139.289000,215.743000,133.718000C215.743000,128.222000,214.021000,125.455000,210.576000,125.417000L204.688000,125.417000L204.688000,142.075000Z" transform="matrix(1 0 0 1 0 78)" opacity="0" fill="rgb(255,255,255)" stroke="none" stroke-width="1"/><path id="er0c9pgtlu527" d="M124.957000,112L136.751000,160.077000L148.501000,112L164.970000,112L164.970000,178.477000L152.318000,178.477000L152.318000,160.488000L153.476000,132.774000L140.997000,178.477000L132.419000,178.477000L119.940000,132.774000L121.098000,160.488000L121.098000,178.477000L108.489000,178.477000L108.489000,112L124.957000,112Z" opacity="0" fill="rgb(255,255,255)" stroke="none" stroke-width="1"/><path id="er0c9pgtlu528" d="M87.475300,164.871000L70.278200,164.871000L66.933100,178.477000L53.595700,178.477000L73.108600,112L84.644900,112L104.286000,178.477000L90.820400,178.477000L87.475300,164.871000ZM73.022900,153.685000L84.687700,153.685000L78.855300,129.989000L73.022900,153.685000Z" opacity="0" fill="rgb(255,255,255)" stroke="none" stroke-width="1"/><path id="er0c9pgtlu529" d="M29.608400,178.477000L17,178.477000L17,112L29.608400,112L29.608400,178.477000Z" opacity="0" fill="rgb(255,255,255)" stroke="none" stroke-width="1"/></g><path id="er0c9pgtlu530" d="M577,235L577.158379,235L577.158379,236.704914L577,236.704914L577,235Z" transform="matrix(12.86885383226480 0 0 1.46634988578151 -7051.75837187654906 -175.84222315832585)" opacity="0" fill="rgb(255,255,255)" stroke="none" stroke-width="0" stroke-opacity="0"/><path id="er0c9pgtlu531" d="M577,235L577.176013,235L577.176013,243L577,243L577,235Z" transform="matrix(11.36282133726350 0 0 1 -5960.34791160556506 -68.99999999757617)" opacity="0" fill="rgb(255,255,255)" stroke="none" stroke-width="0" stroke-opacity="0"/><script><![CDATA[!function(t,n){"object"==typeof exports&&"undefined"!=typeof module?module.exports=n():"function"==typeof define&&define.amd?define(n):(t=t||self).__SVGATOR_PLAYER__=n()}(this,(function(){"use strict";function t(n){return(t="function"==typeof Symbol&&"symbol"==typeof Symbol.iterator?function(t){return typeof t}:function(t){return t&&"function"==typeof Symbol&&t.constructor===Symbol&&t!==Symbol.prototype?"symbol":typeof t})(n)}function n(t,n){if(!(t instanceof n))throw new TypeError("Cannot call a class as a function")}function r(t,n){for(var r=0;r<n.length;r++){var e=n[r];e.enumerable=e.enumerable||!1,e.configurable=!0,"value"in e&&(e.writable=!0),Object.defineProperty(t,e.key,e)}}function e(t,n,e){return n&&r(t.prototype,n),e&&r(t,e),t}var i=1e-5,u=Math.abs;function o(t){return t}function a(t,n,r){var e=1-r;return 3*r*e*(t*e+n*r)+r*r*r}function l(){var t=arguments.length>0&&void 0!==arguments[0]?arguments[0]:0,n=arguments.length>1&&void 0!==arguments[1]?arguments[1]:0,r=arguments.length>2&&void 0!==arguments[2]?arguments[2]:1,e=arguments.length>3&&void 0!==arguments[3]?arguments[3]:1;return t<0||t>1||r<0||r>1?null:u(t-n)<=i&&u(r-e)<=i?o:function(o){if(o<=0)return t>0?o*n/t:0===n&&r>0?o*e/r:0;if(o>=1)return r<1?1+(o-1)*(e-1)/(r-1):1===r&&t<1?1+(o-1)*(n-1)/(t-1):1;for(var l,f=0,s=1;f<s;){var c=a(t,r,l=(f+s)/2);if(u(o-c)<i)break;c<o?f=l:s=l}return a(n,e,l)}}function f(){return 1}function s(t){return 1===t?1:0}function c(){var t=arguments.length>0&&void 0!==arguments[0]?arguments[0]:1,n=arguments.length>1&&void 0!==arguments[1]?arguments[1]:0;if(1===t){if(0===n)return s;if(1===n)return f}var r=1/t;return function(t){return t>=1?1:(t+=n*r)-t%r}}function v(t){var n=arguments.length>1&&void 0!==arguments[1]?arguments[1]:2;if(Number.isInteger(t))return t;var r=Math.pow(10,n);return Math.round(t*r)/r}var h=Math.PI/180;function y(t,n,r){return t>=.5?r:n}function d(t,n,r){return 0===t||n===r?n:t*(r-n)+n}function g(t,n,r){var e=d(t,n,r);return e<=0?0:e}function m(t,n,r){return 0===t?n:1===t?r:{x:d(t,n.x,r.x),y:d(t,n.y,r.y)}}function p(t,n,r){return 0===t?n:1===t?r:{x:g(t,n.x,r.x),y:g(t,n.y,r.y)}}function b(t,n,r){var e=function(t,n,r){return Math.round(d(t,n,r))}(t,n,r);return e<=0?0:e>=255?255:e}function w(t,n,r){return 0===t?n:1===t?r:{r:b(t,n.r,r.r),g:b(t,n.g,r.g),b:b(t,n.b,r.b),a:d(t,null==n.a?1:n.a,null==r.a?1:r.a)}}function A(t,n,r){if(0===t)return n;if(1===t)return r;var e=n.length;if(e!==r.length)return y(t,n,r);for(var i=[],u=0;u<e;u++)i.push(w(t,n[u],r[u]));return i}function x(t,n,r){var e=n.length;if(e!==r.length)return y(t,n,r);for(var i=new Array(e),u=0;u<e;u++)i[u]=d(t,n[u],r[u]);return i}function k(t,n){for(var r=[],e=0;e<t;e++)r.push(n);return r}function S(t,n){if(--n<=0)return t;var r=(t=Object.assign([],t)).length;do{for(var e=0;e<r;e++)t.push(t[e])}while(--n>0);return t}var _=6,M=/\.0+$/g;function I(t){return Number.isInteger(t)?t+"":t.toFixed(_).replace(M,"")}function E(t){var n=arguments.length>1&&void 0!==arguments[1]?arguments[1]:" ";return t&&t.length?t.map(I).join(n):""}function F(t){return I(t.x)+","+I(t.y)}function B(t){return t?null==t.a||t.a>=1?"rgb("+t.r+","+t.g+","+t.b+")":"rgba("+t.r+","+t.g+","+t.b+","+t.a+")":"transparent"}var j={f:null,i:p,u:function(t,n){return function(r){var e=n(r);t.setAttribute("rx",I(e.x)),t.setAttribute("ry",I(e.y))}}},q={f:null,i:function(t,n,r){return 0===t?n:1===t?r:{width:g(t,n.width,r.width),height:g(t,n.height,r.height)}},u:function(t,n){return function(r){var e=n(r);t.setAttribute("width",I(e.width)),t.setAttribute("height",I(e.height))}}},P=Math.sin,O=Math.cos,z=Math.acos,L=Math.asin,C=Math.tan,R=Math.atan2,T=Math.PI/180,V=180/Math.PI,D=Math.sqrt,N=function(){function t(){var r=arguments.length>0&&void 0!==arguments[0]?arguments[0]:1,e=arguments.length>1&&void 0!==arguments[1]?arguments[1]:0,i=arguments.length>2&&void 0!==arguments[2]?arguments[2]:0,u=arguments.length>3&&void 0!==arguments[3]?arguments[3]:1,o=arguments.length>4&&void 0!==arguments[4]?arguments[4]:0,a=arguments.length>5&&void 0!==arguments[5]?arguments[5]:0;n(this,t),this.m=[r,e,i,u,o,a],this.i=null,this.w=null,this.s=null}return e(t,[{key:"point",value:function(t,n){var r=this.m;return{x:r[0]*t+r[2]*n+r[4],y:r[1]*t+r[3]*n+r[5]}}},{key:"translateSelf",value:function(){var t=arguments.length>0&&void 0!==arguments[0]?arguments[0]:0,n=arguments.length>1&&void 0!==arguments[1]?arguments[1]:0;if(!t&&!n)return this;var r=this.m;return r[4]+=r[0]*t+r[2]*n,r[5]+=r[1]*t+r[3]*n,this.w=this.s=this.i=null,this}},{key:"rotateSelf",value:function(){var t=arguments.length>0&&void 0!==arguments[0]?arguments[0]:0;if(t%=360){var n=P(t*=T),r=O(t),e=this.m,i=e[0],u=e[1];e[0]=i*r+e[2]*n,e[1]=u*r+e[3]*n,e[2]=e[2]*r-i*n,e[3]=e[3]*r-u*n,this.w=this.s=this.i=null}return this}},{key:"scaleSelf",value:function(){var t=arguments.length>0&&void 0!==arguments[0]?arguments[0]:1,n=arguments.length>1&&void 0!==arguments[1]?arguments[1]:1;if(1!==t||1!==n){var r=this.m;r[0]*=t,r[1]*=t,r[2]*=n,r[3]*=n,this.w=this.s=this.i=null}return this}},{key:"skewSelf",value:function(t,n){if(n%=360,(t%=360)||n){var r=this.m,e=r[0],i=r[1],u=r[2],o=r[3];t&&(t=C(t*T),r[2]+=e*t,r[3]+=i*t),n&&(n=C(n*T),r[0]+=u*n,r[1]+=o*n),this.w=this.s=this.i=null}return this}},{key:"resetSelf",value:function(){var t=arguments.length>0&&void 0!==arguments[0]?arguments[0]:1,n=arguments.length>1&&void 0!==arguments[1]?arguments[1]:0,r=arguments.length>2&&void 0!==arguments[2]?arguments[2]:0,e=arguments.length>3&&void 0!==arguments[3]?arguments[3]:1,i=arguments.length>4&&void 0!==arguments[4]?arguments[4]:0,u=arguments.length>5&&void 0!==arguments[5]?arguments[5]:0,o=this.m;return o[0]=t,o[1]=n,o[2]=r,o[3]=e,o[4]=i,o[5]=u,this.w=this.s=this.i=null,this}},{key:"recomposeSelf",value:function(){var t=arguments.length>0&&void 0!==arguments[0]?arguments[0]:null,n=arguments.length>1&&void 0!==arguments[1]?arguments[1]:null,r=arguments.length>2&&void 0!==arguments[2]?arguments[2]:null,e=arguments.length>3&&void 0!==arguments[3]?arguments[3]:null,i=arguments.length>4&&void 0!==arguments[4]?arguments[4]:null;return this.isIdentity||this.resetSelf(),t&&(t.x||t.y)&&this.translateSelf(t.x,t.y),n&&this.rotateSelf(n),r&&(r.x&&this.skewSelf(r.x,0),r.y&&this.skewSelf(0,r.y)),!e||1===e.x&&1===e.y||this.scaleSelf(e.x,e.y),i&&(i.x||i.y)&&this.translateSelf(i.x,i.y),this}},{key:"decompose",value:function(){var t=arguments.length>0&&void 0!==arguments[0]?arguments[0]:0,n=arguments.length>1&&void 0!==arguments[1]?arguments[1]:0,r=this.m,e=r[0]*r[0]+r[1]*r[1],i=[[r[0],r[1]],[r[2],r[3]]],u=D(e);if(0===u)return{origin:{x:r[4],y:r[5]},translate:{x:t,y:n},scale:{x:0,y:0},skew:{x:0,y:0},rotate:0};i[0][0]/=u,i[0][1]/=u;var o=r[0]*r[3]-r[1]*r[2]<0;o&&(u=-u);var a=i[0][0]*i[1][0]+i[0][1]*i[1][1];i[1][0]-=i[0][0]*a,i[1][1]-=i[0][1]*a;var l=D(i[1][0]*i[1][0]+i[1][1]*i[1][1]);if(0===l)return{origin:{x:r[4],y:r[5]},translate:{x:t,y:n},scale:{x:u,y:0},skew:{x:0,y:0},rotate:0};i[1][0]/=l,i[1][1]/=l,a/=l;var f=0;return i[1][1]<0?(f=z(i[1][1])*V,i[0][1]<0&&(f=360-f)):f=L(i[0][1])*V,o&&(f=-f),a=R(a,D(i[0][0]*i[0][0]+i[0][1]*i[0][1]))*V,{origin:{x:r[4],y:r[5]},translate:{x:t,y:n},scale:{x:u,y:l},skew:{x:a,y:0},rotate:f}}},{key:"toString",value:function(){return null===this.s&&(this.s="matrix("+this.m.map($).join(" ")+")"),this.s}},{key:"determinant",get:function(){var t=this.m;return t[0]*t[3]-t[1]*t[2]}},{key:"isIdentity",get:function(){if(null===this.i){var t=this.m;this.i=1===t[0]&&0===t[1]&&0===t[2]&&1===t[3]&&0===t[4]&&0===t[5]}return this.i}}]),t}(),G=/\.0+$/;function $(t){return Number.isInteger(t)?t:t.toFixed(14).replace(G,"")}Object.freeze({M:2,L:2,Z:0,H:1,V:1,C:6,Q:4,T:2,S:4,A:7});function H(t,n,r){return t+(n-t)*r}function Q(t,n,r){var e=arguments.length>3&&void 0!==arguments[3]&&arguments[3],i={x:H(t.x,n.x,r),y:H(t.y,n.y,r)};return e&&(i.a=function(t,n){return Math.atan2(n.y-t.y,n.x-t.x)}(t,n)),i}function U(t,n,r,e){var i=1-e;return i*i*t+2*i*e*n+e*e*r}function Y(t,n,r,e){return 2*(1-e)*(n-t)+2*e*(r-n)}function Z(t,n,r,e){var i=arguments.length>4&&void 0!==arguments[4]&&arguments[4],u={x:U(t.x,n.x,r.x,e),y:U(t.y,n.y,r.y,e)};return i&&(u.a=function(t,n,r,e){return Math.atan2(Y(t.y,n.y,r.y,e),Y(t.x,n.x,r.x,e))}(t,n,r,e)),u}function J(t,n,r,e,i){var u=i*i;return i*u*(e-t+3*(n-r))+3*u*(t+r-2*n)+3*i*(n-t)+t}function K(t,n,r,e,i){var u=1-i;return 3*(u*u*(n-t)+2*u*i*(r-n)+i*i*(e-r))}function W(t,n,r,e,i){var u=arguments.length>5&&void 0!==arguments[5]&&arguments[5],o={x:J(t.x,n.x,r.x,e.x,i),y:J(t.y,n.y,r.y,e.y,i)};return u&&(o.a=function(t,n,r,e,i){return Math.atan2(K(t.y,n.y,r.y,e.y,i),K(t.x,n.x,r.x,e.x,i))}(t,n,r,e,i)),o}function X(t,n,r){var e,i=arguments.length>3&&void 0!==arguments[3]&&arguments[3];if(nt(n)){if(null!=(e=r).start&&!nt(e))return Z(n,r.start,r,t,i)}else if(nt(r)){if(n.end)return Z(n,n.end,r,t,i)}else{if(n.end)return r.start?W(n,n.end,r.start,r,t,i):Z(n,n.end,r,t,i);if(r.start)return Z(n,r.start,r,t,i)}return Q(n,r,t,i)}function tt(t,n,r){var e=X(t,n,r,!0);return e.a=function(t){return arguments.length>1&&void 0!==arguments[1]&&arguments[1]?t+Math.PI:t}(e.a)/h,e}function nt(t){return!t.type||"corner"===t.type}var rt=new N;var et={f:function(t){return t?t.join(" "):""},i:function(n,r,e){if(0===n)return r;if(1===n)return e;var i=r.length;if(i!==e.length)return y(n,r,e);for(var u,o=new Array(i),a=0;a<i;a++){if((u=t(r[a]))!==t(e[a]))return y(n,r,e);if("number"===u)o[a]=d(n,r[a],e[a]);else{if(r[a]!==e[a])return y(n,r,e);o[a]=r[a]}}return o}},it={f:null,i:x,u:function(t,n){return function(r){var e=n(r);t.setAttribute("x1",I(e[0])),t.setAttribute("y1",I(e[1])),t.setAttribute("x2",I(e[2])),t.setAttribute("y2",I(e[3]))}}},ut={f:I,i:d},ot={f:I,i:function(t,n,r){var e=d(t,n,r);return e<=0?0:e>=1?1:e}},at={f:E,i:function(t,n,r){var e,i,u,o=n.length,a=r.length;if(o!==a)if(0===o)n=k(o=a,0);else if(0===a)a=o,r=k(o,0);else{var l=(u=(e=o)*(i=a)/function(t,n){for(var r;n;)r=n,n=t%n,t=r;return t||1}(e,i))<0?-u:u;n=S(n,Math.floor(l/o)),r=S(r,Math.floor(l/a)),o=a=l}for(var f=[],s=0;s<o;s++)f.push(v(g(t,n[s],r[s]),6));return f}};function lt(t,n,r,e,i,u,o,a){return n=function(t,n,r){for(var e,i,u,o=t.length-1,a={},l=0;l<=o;l++)(e=t[l]).e&&(e.e=n(e.e)),e.v&&"g"===(i=e.v).t&&i.r&&(u=r.getElementById(i.r))&&(a[i.r]=u.querySelectorAll("stop"));return a}(t,e,a),function(e){var i,u=r(e,t,ft);return u?"c"===u.t?B(u.v):"g"===u.t?(n[u.r]&&function(t,n){for(var r=0,e=t.length;r<e;r++)t[r].setAttribute("stop-color",B(n[r]))}(n[u.r],u.v),(i=u.r)?"url(#"+i+")":"none"):"none":"none"}}function ft(t,n,r){if(0===t)return n;if(1===t)return r;if(n&&r){var e=n.t;if(e===r.t)switch(n.t){case"c":return{t:e,v:w(t,n.v,r.v)};case"g":if(n.r===r.r)return{t:e,v:A(t,n.v,r.v),r:n.r}}}return y(t,n,r)}var st={blur:p,brightness:g,contrast:g,"drop-shadow":function(t,n,r){return 0===t?n:1===t?r:{blur:p(t,n.blur,r.blur),offset:m(t,n.offset,r.offset),color:w(t,n.color,r.color)}},grayscale:g,"hue-rotate":d,invert:g,opacity:g,saturate:g,sepia:g};function ct(t,n,r){if(0===t)return n;if(1===t)return r;var e=n.length;if(e!==r.length)return y(t,n,r);for(var i,u=[],o=0;o<e;o++){if(n[o].type!==r[o].type)return n;if(!(i=st[n[o].type]))return y(t,n,r);u.push({type:n.type,value:i(t,n[o].value,r[o].value)})}return u}var vt={blur:function(t){return t?function(n){t.setAttribute("stdDeviation",F(n))}:null},brightness:function(t,n,r){return(t=yt(r,n))?function(n){n=I(n),t.map((function(t){return t.setAttribute("slope",n)}))}:null},contrast:function(t,n,r){return(t=yt(r,n))?function(n){var r=I((1-n)/2);n=I(n),t.map((function(t){t.setAttribute("slope",n),t.setAttribute("intercept",r)}))}:null},"drop-shadow":function(t,n,r){var e=r.getElementById(n+"-blur");if(!e)return null;var i=r.getElementById(n+"-offset");if(!i)return null;var u=r.getElementById(n+"-flood");return u?function(t){e.setAttribute("stdDeviation",F(t.blur)),i.setAttribute("dx",I(t.offset.x)),i.setAttribute("dy",I(t.offset.y)),u.setAttribute("flood-color",B(t.color))}:null},grayscale:function(t){return t?function(n){t.setAttribute("values",E(function(t){return[.2126+.7874*(t=1-t),.7152-.7152*t,.0722-.0722*t,0,0,.2126-.2126*t,.7152+.2848*t,.0722-.0722*t,0,0,.2126-.2126*t,.7152-.7152*t,.0722+.9278*t,0,0,0,0,0,1,0]}(n)))}:null},"hue-rotate":function(t){return t?function(n){return t.setAttribute("values",I(n))}:null},invert:function(t,n,r){return(t=yt(r,n))?function(n){n=I(n)+" "+I(1-n),t.map((function(t){return t.setAttribute("tableValues",n)}))}:null},opacity:function(t,n,r){return(t=r.getElementById(n+"-A"))?function(n){return t.setAttribute("tableValues","0 "+I(n))}:null},saturate:function(t){return t?function(n){return t.setAttribute("values",I(n))}:null},sepia:function(t){return t?function(n){return t.setAttribute("values",E(function(t){return[.393+.607*(t=1-t),.769-.769*t,.189-.189*t,0,0,.349-.349*t,.686+.314*t,.168-.168*t,0,0,.272-.272*t,.534-.534*t,.131+.869*t,0,0,0,0,0,1,0]}(n)))}:null}};var ht=["R","G","B"];function yt(t,n){var r=ht.map((function(r){return t.getElementById(n+"-"+r)||null}));return-1!==r.indexOf(null)?null:r}var dt={fill:lt,"fill-opacity":ot,stroke:lt,"stroke-opacity":ot,"stroke-width":ut,"stroke-dashoffset":{f:I,i:d},"stroke-dasharray":at,opacity:ot,transform:function(n,r,e,i){if(!(n=function(n,r){if(!n||"object"!==t(n))return null;var e=!1;for(var i in n)n.hasOwnProperty(i)&&(n[i]&&n[i].length?(n[i].forEach((function(t){t.e&&(t.e=r(t.e))})),e=!0):delete n[i]);return e?n:null}(n,i)))return null;var u=function(t,i,u){var o=arguments.length>3&&void 0!==arguments[3]?arguments[3]:null;return n[t]?e(i,n[t],u):r&&r[t]?r[t]:o};return r&&r.a&&n.o?function(t){var r=e(t,n.o,tt);return rt.recomposeSelf(r,u("r",t,d,0)+r.a,u("k",t,m),u("s",t,m),u("t",t,m)).toString()}:function(t){return rt.recomposeSelf(u("o",t,X,null),u("r",t,d,0),u("k",t,m),u("s",t,m),u("t",t,m)).toString()}},"#filter":function(t,n,r,e,i,u,o,a){if(!n.items||!t||!t.length)return null;var l=function(t,n){var r=(t=t.map((function(t){return t&&vt[t[0]]?(n.getElementById(t[1]),vt[t[0]](n.getElementById(t[1]),t[1],n)):null}))).length;return function(n){for(var e=0;e<r;e++)t[e]&&t[e](n[e].value)}}(n.items,a);return l?(t=function(t,n){return t.map((function(t){return t.e=n(t.e),t}))}(t,e),function(n){l(r(n,t,ct))}):null},"#line":it,points:{f:E,i:x},d:et,r:ut,"#size":q,"#radius":j,_:function(t,n){if(Array.isArray(t))for(var r=0;r<t.length;r++)this[t[r]]=n;else this[t]=n}},gt=function(){function t(r){n(this,t),this.list=r,this.length=r.length}return e(t,[{key:"setAttribute",value:function(t,n){for(var r=this.list,e=0;e<this.length;e++)r[e].setAttribute(t,n)}},{key:"removeAttribute",value:function(t){for(var n=this.list,r=0;r<this.length;r++)n[r].removeAttribute(t)}},{key:"style",value:function(t,n){for(var r=this.list,e=0;e<this.length;e++)r[e].style[t]=n}}]),t}(),mt=/-./g,pt=function(t,n){return n.toUpperCase()};function bt(t){return"function"==typeof t?t:y}function wt(t){return t?"function"==typeof t?t:Array.isArray(t)?function(t){var n=arguments.length>1&&void 0!==arguments[1]?arguments[1]:o;if(!Array.isArray(t))return n;switch(t.length){case 1:return c(t[0])||n;case 2:return c(t[0],t[1])||n;case 4:return l(t[0],t[1],t[2],t[3])||n}return n}(t,null):function(t,n){var r=arguments.length>2&&void 0!==arguments[2]?arguments[2]:o;switch(t){case"linear":return o;case"steps":return c(n.steps||1,n.jump||0)||r;case"bezier":case"cubic-bezier":return l(n.x1||0,n.y1||0,n.x2||0,n.y2||0)||r}return r}(t.type,t.value,null):null}function At(t,n,r){var e=arguments.length>3&&void 0!==arguments[3]&&arguments[3],i=n.length-1;if(t<=n[0].t)return e?[0,0,n[0].v]:n[0].v;if(t>=n[i].t)return e?[i,1,n[i].v]:n[i].v;var u,o=n[0],a=null;for(u=1;u<=i;u++){if(!(t>n[u].t)){a=n[u];break}o=n[u]}return null==a?e?[i,1,n[i].v]:n[i].v:o.t===a.t?e?[u,1,a.v]:a.v:(t=(t-o.t)/(a.t-o.t),o.e&&(t=o.e(t)),e?[u,t,r(t,o.v,a.v)]:r(t,o.v,a.v))}function xt(t,n){var r=arguments.length>2&&void 0!==arguments[2]?arguments[2]:null;return t&&t.length?"function"!=typeof n?null:("function"!=typeof r&&(r=null),function(e){var i=At(e,t,n);return null!=i&&r&&(i=r(i)),i}):null}function kt(t,n){return t.t-n.t}function St(n,r,e,i,u){var o,a="@"===e[0],l="#"===e[0],f=dt[e],s=y;switch(a?(o=e.substr(1),e=o.replace(mt,pt)):l&&(e=e.substr(1)),t(f)){case"function":if(s=f(i,u,At,wt,e,a,r,n),l)return s;break;case"string":s=xt(i,bt(f));break;case"object":if((s=xt(i,bt(f.i),f.f))&&"function"==typeof f.u)return f.u(r,s,e,a,n)}return s?function(t,n,r){if(arguments.length>3&&void 0!==arguments[3]&&arguments[3])return t instanceof gt?function(e){return t.style(n,r(e))}:function(e){return t.style[n]=r(e)};if(Array.isArray(n)){var e=n.length;return function(i){var u=r(i);if(null==u)for(var o=0;o<e;o++)t[o].removeAttribute(n);else for(var a=0;a<e;a++)t[a].setAttribute(n,u)}}return function(e){var i=r(e);null==i?t.removeAttribute(n):t.setAttribute(n,i)}}(r,e,s,a):null}function _t(n,r,e,i){if(!i||"object"!==t(i))return null;var u=null,o=null;return Array.isArray(i)?o=function(t){if(!t||!t.length)return null;for(var n=0;n<t.length;n++)t[n].e&&(t[n].e=wt(t[n].e));return t.sort(kt)}(i):(o=i.keys,u=i.data||null),o?St(n,r,e,o,u):null}function Mt(t,n,r){if(!r)return null;var e=[];for(var i in r)if(r.hasOwnProperty(i)){var u=_t(t,n,i,r[i]);u&&e.push(u)}return e.length?e:null}function It(t,n){if(!n.duration||n.duration<0)return null;var r=function(t,n){if(!n)return null;var r=[];if(Array.isArray(n))for(var e=n.length,i=0;i<e;i++){var u=n[i];if(2===u.length){var o=null;if("string"==typeof u[0])o=t.getElementById(u[0]);else if(Array.isArray(u[0])){o=[];for(var a=0;a<u[0].length;a++)if("string"==typeof u[0][a]){var l=t.getElementById(u[0][a]);l&&o.push(l)}o=o.length?1===o.length?o[0]:new gt(o):null}if(o){var f=Mt(t,o,u[1]);f&&(r=r.concat(f))}}}else for(var s in n)if(n.hasOwnProperty(s)){var c=t.getElementById(s);if(c){var v=Mt(t,c,n[s]);v&&(r=r.concat(v))}}return r.length?r:null}(t,n.elements);return r?function(t,n){var r=arguments.length>2&&void 0!==arguments[2]?arguments[2]:1/0,e=arguments.length>3&&void 0!==arguments[3]?arguments[3]:1,i=arguments.length>4&&void 0!==arguments[4]&&arguments[4],u=arguments.length>5&&void 0!==arguments[5]?arguments[5]:1,o=t.length,a=e>0?n:0;i&&r%2==0&&(a=n-a);var l=null;return function(f,s){var c=f%n,v=1+(f-c)/n;s*=e,i&&v%2==0&&(s=-s);var h=!1;if(v>r)c=a,h=!0,-1===u&&(c=e>0?0:n);else if(s<0&&(c=n-c),c===l)return!1;l=c;for(var y=0;y<o;y++)t[y](c);return h}}(r,n.duration,n.iterations||1/0,n.direction||1,!!n.alternate,n.fill||1):null}var Et=function(){function t(r){var e=arguments.length>1&&void 0!==arguments[1]?arguments[1]:{};n(this,t),this._id=0,this._running=!1,this._animations=r,this.direction=e.direction||1,this.speed=e.speed||1,this.fps=e.fps||100,this.offset=e.offset||0}return e(t,[{key:"_start",value:function(){var t=this,n=arguments.length>0&&void 0!==arguments[0]?arguments[0]:0,r=-1/0,e=null,i={},u=function u(o){t._running=!0,null==e&&(e=o);var a=Math.round((o-e+n)*t.speed),l=t.fps?1e3/t.fps:0;if(a>r+l){t.offset=a,r=a;for(var f=t._animations,s=f.length,c=0,v=0;v<s;v++)i[v]?c++:(i[v]=f[v](a,t.direction),i[v]&&c++);if(c===s)return void t._stop()}t._id=window.requestAnimationFrame(u)};this._id=window.requestAnimationFrame(u)}},{key:"_stop",value:function(){this._id&&window.cancelAnimationFrame(this._id),this._running=!1}},{key:"play",value:function(){this._running||this._start(this.offset)}},{key:"stop",value:function(){this._stop(),this.offset=0;var t=this.direction,n=this._animations;requestAnimationFrame((function(){for(var r=0;r<n.length;r++)n[r](0,t)}))}},{key:"restart",value:function(){this._stop(),this.offset=0,this._start()}},{key:"pause",value:function(){this._stop()}},{key:"reverse",value:function(){this.direction=-this.direction}}],[{key:"build",value:function(n){if(!(n=function(t){if(!t||!t.root||!Array.isArray(t.animations))return null;var n=window.document.getElementById(t.root);if(!n)return null;var r=t.animations.map((function(t){return It(n,t)})).filter((function(t){return!!t}));return r.length?{element:n,animations:r,options:t.options||void 0}:null}(n)))return null;var r=n.element,e=n.options||{},i=new t(n.animations,n.options);return function(t,n,r){var e=arguments.length>3&&void 0!==arguments[3]?arguments[3]:null;if("click"===r){return void n.addEventListener("click",(function r(){n.removeEventListener("click",r),t.play()}))}if("hover"===r)return n.addEventListener("mouseenter",(function(){return t.play()})),void n.addEventListener("mouseleave","freeze"===e?function(){return t.pause()}:function(){return t.stop()});t.play()}(i,r,e.start,e.hover),i}}]),t}();return function(){for(var t=0,n=["ms","moz","webkit","o"],r=0;r<n.length&&!window.requestAnimationFrame;++r)window.requestAnimationFrame=window[n[r]+"RequestAnimationFrame"],window.cancelAnimationFrame=window[n[r]+"CancelAnimationFrame"]||window[n[r]+"CancelRequestAnimationFrame"];window.requestAnimationFrame||(window.requestAnimationFrame=function(n){var r=Date.now(),e=Math.max(0,16-(r-t)),i=window.setTimeout((function(){n(r+e)}),e);return t=r+e,i},window.cancelAnimationFrame=window.clearTimeout)}(),Et}));
__SVGATOR_PLAYER__.build({"root":"er0c9pgtlu51","animations":[{"duration":3000,"direction":1,"iterations":1,"fill":1,"alternate":false,"elements":{"er0c9pgtlu53":{"transform":{"data":{"s":{"x":1,"y":1.0948456840533947},"t":{"x":-53.810150145,"y":-66}},"keys":{"o":[{"t":2200,"v":{"x":53.5957,"y":144.84974642,"type":"cusp","end":{"x":53.38846979936223,"y":145.30057420117166}},"e":[0,0,0.58,1]},{"t":2500,"v":{"x":53.810150145,"y":55,"type":"cusp","start":{"x":53.44658786205895,"y":55.7909270793136}},"e":[0,0,0.58,1]},{"t":2600,"v":{"x":42.810150145,"y":55,"type":"cusp","start":{"x":42.44658786205895,"y":55.7909270793136}}}]}}},"er0c9pgtlu56":{"transform":{"data":{"s":{"x":1,"y":1.0848704325553273},"t":{"x":-284.303985595,"y":-224}},"keys":{"o":[{"t":2200,"v":{"x":283.298,"y":146.80072427,"type":"corner"},"e":[0,0,0.58,1]},{"t":2500,"v":{"x":283.298,"y":236.80072427,"type":"corner"}}]}}},"er0c9pgtlu521":{"transform":{"data":{"t":{"x":-425.4995004516952,"y":-165.99999999997}},"keys":{"o":[{"t":900,"v":{"x":405,"y":250.77891443000001,"type":"corner"},"e":[0.42,0,1,1]},{"t":1300,"v":{"x":405.17333502,"y":171.74816022,"type":"corner"},"e":[0.42,0,1,1]}],"s":[{"t":900,"v":{"x":0.26668442907270723,"y":0.7789144276168618},"e":[0.42,0,1,1]},{"t":1300,"v":{"x":0.26668442907270723,"y":4.048160224875189},"e":[0.42,0,1,1]},{"t":1700,"v":{"x":4.105929856837625,"y":4.048160224875189},"e":[0.42,0,1,1]}]}},"opacity":[{"t":900,"v":0,"e":[0.42,0,0.58,1]},{"t":1200,"v":1,"e":[0.42,0,0.58,1]}]},"er0c9pgtlu522":{"opacity":[{"t":1000,"v":0,"e":[0.39,0.575,0.565,1]},{"t":1400,"v":1,"e":[0.39,0.575,0.565,1]}]},"er0c9pgtlu523":{"opacity":[{"t":1500,"v":0,"e":[0,0,0.58,1]},{"t":1800,"v":1,"e":[0,0,0.58,1]}]},"er0c9pgtlu524":{"opacity":[{"t":1800,"v":0,"e":[0.42,0,1,1]},{"t":2100,"v":1,"e":[0.42,0,1,1]}]},"er0c9pgtlu525":{"opacity":[{"t":1500,"v":0,"e":[0,0,0.58,1]},{"t":1700,"v":1,"e":[0,0,0.58,1]}]},"er0c9pgtlu526":{"transform":{"keys":{"o":[{"t":500,"v":{"x":0,"y":78,"type":"corner"},"e":[0.42,0,1,1]},{"t":900,"v":{"x":0,"y":1,"type":"corner"},"e":[0.42,0,1,1]}]}},"opacity":[{"t":500,"v":0,"e":[0.47,0,0.745,0.715]},{"t":900,"v":1,"e":[0.47,0,0.745,0.715]}]},"er0c9pgtlu527":{"opacity":[{"t":1600,"v":0,"e":[0,0,0.58,1]},{"t":1900,"v":1,"e":[0,0,0.58,1]}]},"er0c9pgtlu528":{"opacity":[{"t":1900,"v":0,"e":[0,0,0.58,1]},{"t":2200,"v":1,"e":[0,0,0.58,1]}]},"er0c9pgtlu529":{"opacity":[{"t":1600,"v":0,"e":[0,0,0.58,1]},{"t":1900,"v":1,"e":[0,0,0.58,1]}]},"er0c9pgtlu530":{"transform":{"data":{"t":{"x":-576.9999999999814,"y":-235.85245684661777}},"keys":{"o":[{"t":0,"v":{"x":373.57028934,"y":170,"type":"corner"}},{"t":600,"v":{"x":373.57028935,"y":248.787955995,"type":"corner"}},{"t":700,"v":{"x":373.57028935,"y":248.787955995,"type":"corner"}},{"t":1000,"v":{"x":373.57028935,"y":248.787955995,"type":"corner"}}],"s":[{"t":600,"v":{"x":12.868853832264799,"y":1.4663498857815074}},{"t":1000,"v":{"x":138.90735491608322,"y":1.4663498857815074}}]}},"opacity":[{"t":0,"v":0,"e":[0.47,0,0.745,0.715]},{"t":300,"v":1,"e":[0.47,0,0.745,0.715]},{"t":1100,"v":0,"e":[0.47,0,0.745,0.715]}]},"er0c9pgtlu531":{"transform":{"data":{"t":{"x":-577.1760126244324,"y":-238.99999999757617}},"keys":{"o":[{"t":1000,"v":{"x":598,"y":170,"type":"corner"},"e":[0,0,0.58,1]},{"t":1500,"v":{"x":598.999999975,"y":300,"type":"corner"},"e":[0,0,0.58,1]},{"t":2000,"v":{"x":600,"y":298.954555465,"type":"corner"}}],"s":[{"t":1500,"v":{"x":11.362821337263496,"y":1}},{"t":1600,"v":{"x":11.362821337263496,"y":0.26136113335727224}},{"t":2300,"v":{"x":874.5630852189679,"y":0.26136113335727224}}]}},"opacity":[{"t":900,"v":0},{"t":1100,"v":1}]}}}],"options":{"start":"load","hover":"restart"}})]]></script></svg>